<?xml version="1.0" encoding="UTF-8" standalone="no"?>
<!-- Created with Inkscape (http://www.inkscape.org/) -->

<svg
   xmlns:osb="http://www.openswatchbook.org/uri/2009/osb"
   xmlns:dc="http://purl.org/dc/elements/1.1/"
   xmlns:cc="http://creativecommons.org/ns#"
   xmlns:rdf="http://www.w3.org/1999/02/22-rdf-syntax-ns#"
   xmlns:svg="http://www.w3.org/2000/svg"
   xmlns="http://www.w3.org/2000/svg"
   xmlns:sodipodi="http://sodipodi.sourceforge.net/DTD/sodipodi-0.dtd"
   xmlns:inkscape="http://www.inkscape.org/namespaces/inkscape"
   width="30.878712mm"
   height="43.125015mm"
   viewBox="0 0 109.41276 152.80517"
   id="svg2"
   version="1.1"
   inkscape:version="0.91 r13725"
   sodipodi:docname="cut_forest.svg">
  <defs
     id="defs4">
    <linearGradient
       id="linearGradient5624"
       osb:paint="solid">
      <stop
         style="stop-color:#0000ff;stop-opacity:1;"
         offset="0"
         id="stop5626" />
    </linearGradient>
  </defs>
  <sodipodi:namedview
     id="base"
     pagecolor="#ffffff"
     bordercolor="#666666"
     borderopacity="1.0"
     inkscape:pageopacity="0.0"
     inkscape:pageshadow="2"
     inkscape:zoom="1.979899"
     inkscape:cx="-166.77158"
     inkscape:cy="33.595753"
     inkscape:document-units="px"
     inkscape:current-layer="layer1"
     showgrid="false"
     inkscape:window-width="1920"
     inkscape:window-height="1043"
     inkscape:window-x="1920"
     inkscape:window-y="0"
     inkscape:window-maximized="1"
     fit-margin-top="0"
     fit-margin-left="0"
     fit-margin-right="0"
     fit-margin-bottom="0"
     inkscape:snap-grids="true" />
  <metadata
     id="metadata7">
    <rdf:RDF>
      <cc:Work
         rdf:about="">
        <dc:format>image/svg+xml</dc:format>
        <dc:type
           rdf:resource="http://purl.org/dc/dcmitype/StillImage" />
        <dc:title />
      </cc:Work>
    </rdf:RDF>
  </metadata>
  <g
     inkscape:label="Layer 1"
     inkscape:groupmode="layer"
     id="layer1"
     transform="translate(-15.539889,-15.914851)">
    <rect
       style="fill:#e4b884;fill-opacity:1;fill-rule:evenodd;stroke:#702f00;stroke-width:0.651;stroke-linecap:butt;stroke-linejoin:miter;stroke-opacity:1;stroke-miterlimit:4;stroke-dasharray:none"
       id="rect3336"
       width="109.26127"
       height="152.65369"
       x="15.615634"
       y="15.990596"
       ry="7.6832266" />
    <g
       transform="matrix(1.4639453,0,0,1.4639453,147.11517,53.341106)"
       style="font-style:normal;font-weight:normal;font-size:40px;line-height:125%;font-family:sans-serif;letter-spacing:0px;word-spacing:0px;fill:#702f00;fill-opacity:1;stroke:none;stroke-width:1px;stroke-linecap:butt;stroke-linejoin:miter;stroke-opacity:1"
       id="flowRoot6297">
      <path
         d="m -50.529297,-9.9034711 0,10.87890629 10.878906,0 0,3.32031251 -10.878906,0 0,10.8789063 -3.28125,0 0,-10.8789063 -10.878906,0 0,-3.32031251 10.878906,0 0,-10.87890629 3.28125,0 z"
         id="path4163"
         inkscape:connector-curvature="0" />
    </g>
    <rect
       style="opacity:1;fill:#00ca00;fill-opacity:1;stroke:none;stroke-width:1;stroke-linecap:round;stroke-miterlimit:4;stroke-dasharray:none;stroke-opacity:1"
       id="rect14065"
       width="43.6436"
       height="43.6436"
       x="70.914658"
       y="96.342957" />
    <rect
       style="opacity:1;fill:#00ca00;fill-opacity:1;stroke:none;stroke-width:1;stroke-linecap:round;stroke-miterlimit:4;stroke-dasharray:none;stroke-opacity:1"
       id="rect14065-7"
       width="43.6436"
       height="43.6436"
       x="27.2038"
       y="96.263138" />
    <rect
       style="opacity:1;fill:#472700;fill-opacity:1;stroke:none;stroke-width:3.4000001;stroke-linecap:round;stroke-miterlimit:4;stroke-dasharray:none;stroke-opacity:1"
       id="rect7800"
       width="36.617008"
       height="36.617008"
       x="30.983227"
       y="99.448357" />
    <path
       style="fill:none;fill-rule:evenodd;stroke:#260b00;stroke-width:0.1734816px;stroke-linecap:butt;stroke-linejoin:miter;stroke-opacity:1"
       d="m 33.337611,107.75068 c 1.115238,-0.99132 5.328364,-3.90333 6.257724,-5.14249"
       id="path9296"
       inkscape:connector-curvature="0" />
    <path
       style="fill:none;fill-rule:evenodd;stroke:#260b00;stroke-width:0.1734816px;stroke-linecap:butt;stroke-linejoin:miter;stroke-opacity:1"
       d="m 32.779992,113.69862 c 1.239153,-1.48698 3.903336,-2.97396 5.142489,-3.90333 1.239154,-0.92937 5.452284,-3.65551 6.257734,-4.95662 0.80545,-1.30111 2.72614,-1.79677 3.90333,-2.54026"
       id="path9298"
       inkscape:connector-curvature="0" />
    <path
       style="fill:none;fill-rule:evenodd;stroke:#260b00;stroke-width:0.1734816px;stroke-linecap:butt;stroke-linejoin:miter;stroke-opacity:1"
       d="m 33.709357,121.62921 c 2.044604,-1.67286 2.478308,-2.91201 4.584871,-4.95662 2.106567,-2.0446 4.213127,-2.72613 6.009897,-3.77941 1.79677,-1.05329 1.48699,-1.42503 3.34572,-2.97398 1.85873,-1.54894 3.53159,-2.78809 4.52291,-3.59354 0.99132,-0.80545 3.28376,-2.47831 4.33704,-3.28376 1.05328,-0.80545 3.15984,-1.79678 3.15984,-1.79678"
       id="path9300"
       inkscape:connector-curvature="0" />
    <path
       style="fill:none;fill-rule:evenodd;stroke:#260b00;stroke-width:0.1734816px;stroke-linecap:butt;stroke-linejoin:miter;stroke-opacity:1"
       d="m 32.532162,126.46191 c 1.425026,-0.92936 2.850054,-1.73481 4.089207,-2.91201 1.239155,-1.1772 1.177198,-1.6109 3.593546,-3.09788 2.41635,-1.48699 4.64683,-3.03593 5.5762,-3.71747 0.92936,-0.68153 2.54026,-1.48698 3.71746,-2.66418 1.1772,-1.17719 3.96529,-3.34571 4.64683,-4.21312 0.68153,-0.86741 2.23048,-2.3544 3.40767,-3.28376 1.1772,-0.92937 1.48699,-0.92937 3.15985,-2.04461 1.67285,-1.11524 2.78809,-1.85873 3.71746,-2.41635"
       id="path9302"
       inkscape:connector-curvature="0" />
    <path
       style="fill:none;fill-rule:evenodd;stroke:#260b00;stroke-width:0.1734816px;stroke-linecap:butt;stroke-linejoin:miter;stroke-opacity:1"
       d="m 33.6474,117.47805 c 2.540265,-1.98265 2.354394,-1.98265 3.531589,-3.09789 1.177196,-1.11524 5.638156,-3.28376 6.319686,-3.59355 0.68154,-0.30979 1.1772,-1.98264 2.60222,-3.2218 1.42503,-1.23915 5.32837,-3.46963 5.94795,-4.33704"
       id="path9304"
       inkscape:connector-curvature="0" />
    <path
       style="fill:none;fill-rule:evenodd;stroke:#260b00;stroke-width:0.1734816px;stroke-linecap:butt;stroke-linejoin:miter;stroke-opacity:1"
       d="m 33.39957,131.04678 c 1.548942,-1.30111 1.301112,-2.60222 3.531589,-3.84137 2.230476,-1.23916 2.230476,-1.73482 4.027246,-3.03593 1.79678,-1.30111 3.22181,-3.2218 4.77075,-3.65551 1.54894,-0.4337 2.60222,-2.0446 4.33704,-3.40767 1.73481,-1.36307 1.98265,-2.04461 3.34572,-3.09789 1.36306,-1.05328 2.85005,-1.98264 3.84137,-2.85005 0.99133,-0.86741 1.1772,-1.92069 3.34572,-3.40768 2.16852,-1.48698 3.84138,-2.16852 4.399,-2.85005"
       id="path9306"
       inkscape:connector-curvature="0" />
    <path
       style="fill:none;fill-rule:evenodd;stroke:#260b00;stroke-width:0.1734816px;stroke-linecap:butt;stroke-linejoin:miter;stroke-opacity:1"
       d="m 35.81592,133.33922 c 2.106561,-1.73482 2.850055,-2.47831 4.460955,-3.53159 1.6109,-1.05328 2.54027,-1.79678 3.84138,-2.85005 1.30111,-1.05329 2.23048,-1.54895 3.53159,-2.60223 1.30111,-1.05328 2.60222,-2.54027 3.15984,-3.09789 0.55762,-0.55761 2.35439,-2.4783 3.15984,-2.97396 0.80545,-0.49567 1.98265,-1.36308 3.53159,-2.29244 1.54895,-0.92937 1.85874,-1.98265 2.66419,-2.7881 0.80545,-0.80545 2.0446,-2.23047 2.66418,-2.66418 0.61957,-0.4337 1.85873,-1.1772 2.60222,-2.0446"
       id="path9308"
       inkscape:connector-curvature="0" />
    <path
       style="fill:none;fill-rule:evenodd;stroke:#260b00;stroke-width:0.1734816px;stroke-linecap:butt;stroke-linejoin:miter;stroke-opacity:1"
       d="m 40.772535,133.58705 c 2.60223,-1.98265 2.7881,-2.60222 3.90334,-3.34572 1.11524,-0.74349 1.17719,-1.6109 2.97397,-2.35439 1.79677,-0.74349 3.34571,-0.80545 4.27508,-2.04461 0.92937,-1.23915 2.23048,-2.35439 3.2218,-3.22179 0.99132,-0.86741 1.67286,-1.67286 2.85006,-2.85006 1.17719,-1.1772 1.67285,-1.23915 2.72614,-2.29243 1.05328,-1.05329 1.36307,-0.55763 2.91201,-2.23048"
       id="path9310"
       inkscape:connector-curvature="0" />
    <path
       style="fill:none;fill-rule:evenodd;stroke:#260b00;stroke-width:0.1734816px;stroke-linecap:butt;stroke-linejoin:miter;stroke-opacity:1"
       d="m 46.968305,133.52509 c 1.67286,-1.48698 3.40768,-3.15984 4.46096,-3.6555 1.05328,-0.49566 5.14249,-2.7881 5.39032,-3.34572 0.24783,-0.55762 1.36307,-1.36307 2.23048,-2.29244 0.86741,-0.92936 1.92069,-2.23047 2.66418,-2.85005 0.74349,-0.61958 1.98265,-1.36307 2.91201,-2.29244"
       id="path9312"
       inkscape:connector-curvature="0" />
    <path
       style="fill:none;fill-rule:evenodd;stroke:#260b00;stroke-width:0.1734816px;stroke-linecap:butt;stroke-linejoin:miter;stroke-opacity:1"
       d="m 52.978205,133.15334 c 1.79677,-1.36306 2.16852,-1.36306 3.84138,-2.35439 1.67286,-0.99132 3.2218,-1.98264 4.33704,-2.91201 1.11524,-0.92936 1.23915,-1.48699 2.54027,-2.72614"
       id="path9314"
       inkscape:connector-curvature="0" />
    <path
       style="fill:none;fill-rule:evenodd;stroke:#260b00;stroke-width:0.1734816px;stroke-linecap:butt;stroke-linejoin:miter;stroke-opacity:1"
       d="m 58.740275,134.14467 c 1.85873,-1.6109 2.16852,-1.73482 3.53159,-3.03593 1.36307,-1.30111 1.67286,-0.55762 2.54026,-1.98264"
       id="path9316"
       inkscape:connector-curvature="0" />
  </g>
</svg>
