<?xml version="1.0" encoding="UTF-8" standalone="no"?>
<!-- Created with Inkscape (http://www.inkscape.org/) -->

<svg
   xmlns:osb="http://www.openswatchbook.org/uri/2009/osb"
   xmlns:dc="http://purl.org/dc/elements/1.1/"
   xmlns:cc="http://creativecommons.org/ns#"
   xmlns:rdf="http://www.w3.org/1999/02/22-rdf-syntax-ns#"
   xmlns:svg="http://www.w3.org/2000/svg"
   xmlns="http://www.w3.org/2000/svg"
   xmlns:sodipodi="http://sodipodi.sourceforge.net/DTD/sodipodi-0.dtd"
   xmlns:inkscape="http://www.inkscape.org/namespaces/inkscape"
   width="30.878712mm"
   height="43.125015mm"
   viewBox="0 0 109.41276 152.80517"
   id="svg2"
   version="1.1"
   inkscape:version="0.92.2 2405546, 2018-03-11"
   sodipodi:docname="dig_cave.svg">
  <defs
     id="defs4">
    <linearGradient
       id="linearGradient5624"
       osb:paint="solid">
      <stop
         style="stop-color:#0000ff;stop-opacity:1;"
         offset="0"
         id="stop5626" />
    </linearGradient>
    <marker
       inkscape:stockid="Arrow1Mend"
       orient="auto"
       refY="0"
       refX="0"
       id="Arrow1Mend"
       style="overflow:visible"
       inkscape:isstock="true">
      <path
         inkscape:connector-curvature="0"
         id="path4113"
         d="M 0,0 5,-5 -12.5,0 5,5 Z"
         style="fill:#000000;fill-opacity:1;fill-rule:evenodd;stroke:#000000;stroke-width:1.00000003pt;stroke-opacity:1"
         transform="matrix(-0.4,0,0,-0.4,-4,0)" />
    </marker>
  </defs>
  <sodipodi:namedview
     id="base"
     pagecolor="#ffffff"
     bordercolor="#666666"
     borderopacity="1.0"
     inkscape:pageopacity="0.0"
     inkscape:pageshadow="2"
     inkscape:zoom="2.8"
     inkscape:cx="36.092455"
     inkscape:cy="56.209964"
     inkscape:document-units="px"
     inkscape:current-layer="layer1"
     showgrid="false"
     inkscape:window-width="1920"
     inkscape:window-height="1043"
     inkscape:window-x="0"
     inkscape:window-y="0"
     inkscape:window-maximized="1"
     fit-margin-top="0"
     fit-margin-left="0"
     fit-margin-right="0"
     fit-margin-bottom="0"
     inkscape:snap-grids="true" />
  <metadata
     id="metadata7">
    <rdf:RDF>
      <cc:Work
         rdf:about="">
        <dc:format>image/svg+xml</dc:format>
        <dc:type
           rdf:resource="http://purl.org/dc/dcmitype/StillImage" />
        <dc:title />
      </cc:Work>
    </rdf:RDF>
  </metadata>
  <g
     inkscape:label="Layer 1"
     inkscape:groupmode="layer"
     id="layer1"
     transform="translate(-15.539889,-15.914851)">
    <rect
       style="fill:#e4b884;fill-opacity:1;fill-rule:evenodd;stroke:#702f00;stroke-width:0.651;stroke-linecap:butt;stroke-linejoin:miter;stroke-opacity:1;stroke-miterlimit:4;stroke-dasharray:none"
       id="rect3336"
       width="109.26127"
       height="152.65369"
       x="15.615634"
       y="15.990596"
       ry="7.6832266" />
    <g
       id="g10475"
       transform="translate(0,18.75)">
      <rect
         y="96.164856"
         x="27.032127"
         height="43.767445"
         width="43.767445"
         id="rect4136"
         style="opacity:1;fill:#666666;fill-opacity:1;stroke:none;stroke-width:1;stroke-linecap:round;stroke-miterlimit:4;stroke-dasharray:none;stroke-opacity:1" />
      <path
         inkscape:connector-curvature="0"
         id="path4167"
         d="m 31.461977,100.55435 c 0.437897,-0.622661 1.40127,-1.571498 2.101905,-1.512197 0.700635,0.05932 2.393833,1.037787 2.94851,0.978487 0.554666,-0.05932 2.393833,-0.444772 2.948499,-0.326168 0.554666,0.118614 2.539802,-0.593017 2.948499,-0.444763 0.408707,0.148254 1.547239,1.037791 1.780788,1.037791 0.233538,0 2.131095,-1.067442 2.714961,-0.948838 0.583856,0.118603 3.211237,0.326159 3.561555,0.08893 0.350317,-0.237207 1.955936,-0.800573 2.218674,-0.71162 0.262738,0.08893 1.780777,1.779058 2.160295,1.808708 0.379507,0.0296 2.043516,-0.652315 2.423023,-0.593013 0.379518,0.05932 2.247874,-0.415112 2.568992,-0.296519 0.321128,0.118614 1.313691,0.919182 1.605629,0.919182 0.291928,0 1.576429,-0.32615 1.664008,-0.50406 0.08754,-0.177905 1.751588,-0.978488 1.985126,-0.978488 0.233549,0 2.189485,0.474424 2.452223,0.859885 0.262738,0.385463 0.525476,2.075553 0.525476,2.342413 0,0.26686 -0.904983,1.42325 -0.875794,1.83836 0.02918,0.41511 1.050953,2.31278 0.992563,2.63894 -0.05836,0.32616 -0.875794,2.10521 -0.788214,2.40173 0.08754,0.29651 0.525476,1.69009 0.554676,2.10521 0.02918,0.41511 -0.554676,2.07557 -0.496286,2.34242 0.05836,0.26686 0.467086,2.04592 0.467086,2.52033 0,0.47442 -0.875794,1.71975 -0.817404,2.13487 0.05836,0.41512 1.021763,2.75753 0.904983,3.2023 -0.116768,0.44476 -0.700635,0.44476 -0.700635,0.85988 0,0.41511 0.904995,3.32091 0.788215,3.88427 -0.116769,0.56337 -1.021753,2.28313 -0.817404,2.69824 0.204348,0.41511 0.467086,2.54998 0.350317,2.90579 -0.116769,0.35581 -0.642245,0.85986 -0.642245,1.2157 0,0.35578 0.788215,2.72787 0.525476,3.17264 -0.262738,0.44476 -2.101905,0.68198 -2.393833,0.68198 -0.291938,0 -1.897557,-0.80059 -2.247874,-0.74128 -0.350318,0.0593 -2.539803,1.21568 -2.948499,1.21568 -0.408708,0 -1.664009,-0.74126 -1.955947,-0.71162 -0.291928,0.0296 -2.393833,0.59303 -2.714961,0.47441 -0.321117,-0.1186 -1.284491,-0.91917 -1.634808,-0.91917 -0.350318,0 -2.714961,0.94883 -3.036089,0.97847 -0.321118,0.0296 -2.131095,-0.68195 -2.393833,-0.6523 -0.262739,0.0296 -1.809967,-0.50406 -2.131095,-0.32617 -0.321128,0.1779 -1.40127,0.53373 -1.809978,0.53373 -0.408697,0 -2.393833,-0.83024 -2.77334,-0.80059 -0.379507,0.0296 -2.598192,1.06743 -3.094468,0.97848 -0.496287,-0.0889 -2.89012,-0.85987 -3.240438,-0.80058 -0.350317,0.0593 -3.853493,1.12675 -4.17461,0.83023 -0.321128,-0.29651 -0.583866,-2.57963 -0.408707,-2.99474 0.175158,-0.4151 0.934183,-1.77906 0.934183,-2.19418 0,-0.4151 -1.37208,-2.34242 -1.37208,-2.81683 0,-0.47441 0.467086,-2.16452 0.467086,-2.40173 0,-0.23721 0.496287,-2.16452 0.437897,-2.75754 -0.05836,-0.59301 -0.642245,-1.71975 -0.613056,-2.10521 0.02918,-0.38547 0.963374,-2.25347 0.963374,-2.63893 0,-0.38546 -1.576429,-1.71976 -1.51804,-2.13487 0.05836,-0.41511 1.342881,-1.77906 1.313691,-2.04592 -0.02918,-0.26686 -0.467086,-1.66045 -0.437897,-1.92731 0.02918,-0.26685 -0.145969,-2.19417 -0.116769,-2.54998 0.02918,-0.35581 0.875794,-2.13487 0.788215,-2.52033 -0.08754,-0.38546 -1.576429,-2.19417 -1.54724,-2.52033 0.02918,-0.32616 1.138533,-1.6901 1.109343,-2.01626 -0.02918,-0.32617 0.496276,-2.75754 0.496276,-2.75754 z"
         style="fill:#838383;fill-opacity:1;fill-rule:evenodd;stroke:none;stroke-width:1px;stroke-linecap:butt;stroke-linejoin:miter;stroke-opacity:1" />
      <rect
         style="opacity:1;fill:#666666;fill-opacity:1;stroke:none;stroke-width:1;stroke-linecap:round;stroke-miterlimit:4;stroke-dasharray:none;stroke-opacity:1"
         id="rect9957"
         width="43.767445"
         height="43.767445"
         x="70.774132"
         y="96.164856" />
      <path
         style="fill:#838383;fill-opacity:1;fill-rule:evenodd;stroke:none;stroke-width:1px;stroke-linecap:butt;stroke-linejoin:miter;stroke-opacity:1"
         d="m 75.203988,100.55435 c 0.437897,-0.622661 1.401259,-1.571498 2.101895,-1.512197 0.700635,0.05932 2.393843,1.037787 2.948509,0.978487 0.554666,-0.05932 2.393833,-0.444772 2.948499,-0.326168 0.554677,0.118614 2.539802,-0.593017 2.94851,-0.444763 0.408697,0.148254 1.547229,1.037791 1.780777,1.037791 0.233549,0 2.131095,-1.067442 2.714961,-0.948838 0.583866,0.118603 3.211237,0.326159 3.561555,0.08893 0.350318,-0.237207 1.955947,-0.800573 2.218685,-0.71162 0.262738,0.08893 1.780777,1.779058 2.160284,1.808708 0.379504,0.0296 2.043517,-0.652315 2.423017,-0.593013 0.37952,0.05932 2.24788,-0.415112 2.56901,-0.296519 0.32112,0.118614 1.31369,0.919182 1.60561,0.919182 0.29193,0 1.57643,-0.32615 1.66401,-0.50406 0.0875,-0.177905 1.75159,-0.978488 1.98512,-0.978488 0.23355,0 2.18949,0.474424 2.45223,0.859885 0.26273,0.385463 0.52547,2.075553 0.52547,2.342413 0,0.26686 -0.90498,1.42325 -0.87579,1.83836 0.0292,0.41511 1.05095,2.31278 0.99256,2.63894 -0.0584,0.32616 -0.87578,2.10521 -0.7882,2.40173 0.0875,0.29651 0.52547,1.69009 0.55466,2.10521 0.0292,0.41511 -0.55466,2.07557 -0.49628,2.34242 0.0584,0.26686 0.46709,2.04592 0.46709,2.52033 0,0.47442 -0.87579,1.71975 -0.81741,2.13487 0.0584,0.41512 1.02176,2.75753 0.90498,3.2023 -0.11677,0.44476 -0.70062,0.44476 -0.70062,0.85988 0,0.41511 0.90498,3.32091 0.78821,3.88427 -0.11678,0.56337 -1.02176,2.28313 -0.81741,2.69824 0.20436,0.41511 0.4671,2.54998 0.35032,2.90579 -0.11677,0.35581 -0.64225,0.85986 -0.64225,1.2157 0,0.35578 0.78822,2.72787 0.52548,3.17264 -0.26274,0.44476 -2.10191,0.68198 -2.39384,0.68198 -0.29193,0 -1.89755,-0.80059 -2.24787,-0.74128 -0.35032,0.0593 -2.53979,1.21568 -2.9485,1.21568 -0.4087,0 -1.664,-0.74126 -1.95594,-0.71162 -0.29193,0.0296 -2.393835,0.59303 -2.714952,0.47441 -0.321125,-0.1186 -1.284498,-0.91917 -1.634816,-0.91917 -0.350318,0 -2.714961,0.94883 -3.036078,0.97847 -0.321128,0.0296 -2.131095,-0.68195 -2.393844,-0.6523 -0.262738,0.0296 -1.809967,-0.50406 -2.131095,-0.32617 -0.321117,0.1779 -1.40127,0.53373 -1.809967,0.53373 -0.408707,0 -2.393844,-0.83024 -2.773351,-0.80059 -0.379507,0.0296 -2.598181,1.06743 -3.094468,0.97848 -0.496287,-0.0889 -2.89012,-0.85987 -3.240437,-0.80058 -0.350318,0.0593 -3.853483,1.12675 -4.174611,0.83023 -0.321128,-0.29651 -0.583866,-2.57963 -0.408707,-2.99474 0.175159,-0.4151 0.934183,-1.77906 0.934183,-2.19418 0,-0.4151 -1.37208,-2.34242 -1.37208,-2.81683 0,-0.47441 0.467097,-2.16452 0.467097,-2.40173 0,-0.23721 0.496276,-2.16452 0.437897,-2.75754 -0.05836,-0.59301 -0.642256,-1.71975 -0.613056,-2.10521 0.02918,-0.38547 0.963374,-2.25347 0.963374,-2.63893 0,-0.38546 -1.576429,-1.71976 -1.51805,-2.13487 0.05836,-0.41511 1.342891,-1.77906 1.31369,-2.04592 -0.02918,-0.26686 -0.467086,-1.66045 -0.437896,-1.92731 0.02918,-0.26685 -0.145959,-2.19417 -0.116769,-2.54998 0.02918,-0.35581 0.875793,-2.13487 0.788214,-2.52033 -0.08754,-0.38546 -1.576429,-2.19417 -1.547239,-2.52033 0.02918,-0.32616 1.138532,-1.6901 1.109342,-2.01626 -0.02918,-0.32617 0.496287,-2.75754 0.496287,-2.75754 z"
         id="path9959"
         inkscape:connector-curvature="0" />
    </g>
    <path
       sodipodi:type="spiral"
       style="fill:none;fill-rule:evenodd;stroke:#000000;stroke-width:0.9375;stroke-linecap:butt;stroke-linejoin:miter;stroke-miterlimit:0.40000001;stroke-dasharray:none;stroke-opacity:1;marker-end:url(#Arrow1Mend)"
       id="path7186"
       sodipodi:cx="88.502258"
       sodipodi:cy="98.281403"
       sodipodi:expansion="1"
       sodipodi:revolution="1.8210731"
       sodipodi:radius="12.102883"
       sodipodi:argument="-18.135466"
       sodipodi:t0="0.50781173"
       d="m 94.470099,99.750423 c -0.277498,3.906077 -4.088155,6.513367 -7.833995,6.112167 -4.783635,-0.51236 -7.933871,-5.21714 -7.328376,-9.844477 0.740785,-5.661258 6.346906,-9.35796 11.854954,-8.544585 3.577128,0.528235 6.720602,2.816862 8.438703,5.981989" />
    <g
       id="g19187"
       transform="matrix(0.06890399,0,0,0.06890399,45.392419,88.107102)">
      <path
         sodipodi:nodetypes="ssssssss"
         inkscape:connector-curvature="0"
         id="path5978"
         d="m 135.00135,186.69721 c -26.71511,51.29033 -62.079565,86.897 -104.761495,75.28935 -25.8675131,-7.03484 -57.032646,2.3202 -51.336924,-59.20707 1.807916,-19.52973 -4.4451,-40.86859 1.533534,-62.85236 5.415749,-19.91399 18.3392419,-25.79406 27.0294889,-50.404486 10.7275291,-30.37992 51.0533391,-34.759882 77.7320011,-24.88488 14.26787,5.28119 32.476855,13.57404 38.264865,29.94913 9.12172,25.806566 27.76817,60.951076 11.53853,92.110316 z"
         style="opacity:1;fill:#636363;fill-opacity:1;stroke:#414141;stroke-width:2.70354319;stroke-linecap:round;stroke-miterlimit:4;stroke-dasharray:none;stroke-opacity:1" />
      <path
         sodipodi:nodetypes="ssssssss"
         inkscape:connector-curvature="0"
         id="path5978-8"
         d="m 218.21987,111.60971 c -56.85497,-10.57868 -106.69146,-4.67915 -123.860125,36.08508 -10.40513,24.70524 -36.981665,43.47942 14.978005,76.91952 16.49279,10.61444 29.44148,28.69144 50.43751,37.53432 19.01925,8.01036 31.61543,1.4584 56.35119,9.78509 30.53465,10.27879 58.84025,-18.77545 67.50889,-45.87009 4.63684,-14.49014 9.32991,-33.94048 0.004,-48.5917 -14.6985,-23.08982 -30.879,-59.43562 -65.41877,-65.86222 z"
         style="opacity:1;fill:#636363;fill-opacity:1;stroke:#414141;stroke-width:2.70354319;stroke-linecap:round;stroke-miterlimit:4;stroke-dasharray:none;stroke-opacity:1" />
      <path
         sodipodi:nodetypes="ssssssss"
         inkscape:connector-curvature="0"
         id="path5978-8-7"
         d="M 186.09022,-21.160366 C 128.7591,-28.745421 79.300175,-20.242618 64.291085,21.36519 c -9.09631,25.216584 -34.652586,45.357524 18.98792,76.029094 17.026325,9.735626 30.904445,27.109306 52.335005,34.839886 19.41282,7.00274 31.64838,-0.2002 56.78645,6.81891 31.03133,8.66467 57.77564,-21.83279 65.01263,-49.344476 3.87039,-14.71337 7.53868,-34.382728 -2.54281,-48.525094 -15.88823,-22.287934 -33.95099,-57.735936 -68.78006,-62.343876 z"
         style="opacity:1;fill:#636363;fill-opacity:1;stroke:#414141;stroke-width:2.70354319;stroke-linecap:round;stroke-miterlimit:4;stroke-dasharray:none;stroke-opacity:1" />
    </g>
  </g>
</svg>
