<?xml version="1.0" encoding="UTF-8" standalone="no"?>
<!-- Created with Inkscape (http://www.inkscape.org/) -->

<svg
   xmlns:osb="http://www.openswatchbook.org/uri/2009/osb"
   xmlns:dc="http://purl.org/dc/elements/1.1/"
   xmlns:cc="http://creativecommons.org/ns#"
   xmlns:rdf="http://www.w3.org/1999/02/22-rdf-syntax-ns#"
   xmlns:svg="http://www.w3.org/2000/svg"
   xmlns="http://www.w3.org/2000/svg"
   xmlns:sodipodi="http://sodipodi.sourceforge.net/DTD/sodipodi-0.dtd"
   xmlns:inkscape="http://www.inkscape.org/namespaces/inkscape"
   width="30.878712mm"
   height="43.125015mm"
   viewBox="0 0 109.41276 152.80517"
   id="svg2"
   version="1.1"
   inkscape:version="0.91 r13725"
   sodipodi:docname="dig_cave.svg">
  <defs
     id="defs4">
    <linearGradient
       id="linearGradient5624"
       osb:paint="solid">
      <stop
         style="stop-color:#0000ff;stop-opacity:1;"
         offset="0"
         id="stop5626" />
    </linearGradient>
  </defs>
  <sodipodi:namedview
     id="base"
     pagecolor="#ffffff"
     bordercolor="#666666"
     borderopacity="1.0"
     inkscape:pageopacity="0.0"
     inkscape:pageshadow="2"
     inkscape:zoom="2.8"
     inkscape:cx="-100.50242"
     inkscape:cy="56.209964"
     inkscape:document-units="px"
     inkscape:current-layer="layer1"
     showgrid="false"
     inkscape:window-width="1920"
     inkscape:window-height="1043"
     inkscape:window-x="1920"
     inkscape:window-y="0"
     inkscape:window-maximized="1"
     fit-margin-top="0"
     fit-margin-left="0"
     fit-margin-right="0"
     fit-margin-bottom="0"
     inkscape:snap-grids="true" />
  <metadata
     id="metadata7">
    <rdf:RDF>
      <cc:Work
         rdf:about="">
        <dc:format>image/svg+xml</dc:format>
        <dc:type
           rdf:resource="http://purl.org/dc/dcmitype/StillImage" />
        <dc:title />
      </cc:Work>
    </rdf:RDF>
  </metadata>
  <g
     inkscape:label="Layer 1"
     inkscape:groupmode="layer"
     id="layer1"
     transform="translate(-15.539889,-15.914851)">
    <rect
       style="fill:#e4b884;fill-opacity:1;fill-rule:evenodd;stroke:#702f00;stroke-width:0.651;stroke-linecap:butt;stroke-linejoin:miter;stroke-opacity:1;stroke-miterlimit:4;stroke-dasharray:none"
       id="rect3336"
       width="109.26127"
       height="152.65369"
       x="15.615634"
       y="15.990596"
       ry="7.6832266" />
    <rect
       style="opacity:1;fill:#666666;fill-opacity:1;stroke:none;stroke-width:1;stroke-linecap:round;stroke-miterlimit:4;stroke-dasharray:none;stroke-opacity:1"
       id="rect4136"
       width="43.767445"
       height="43.767445"
       x="27.032127"
       y="96.164856" />
    <path
       style="fill:#838383;fill-opacity:1;fill-rule:evenodd;stroke:none;stroke-width:1px;stroke-linecap:butt;stroke-linejoin:miter;stroke-opacity:1"
       d="m 31.461977,100.55435 c 0.437897,-0.622661 1.40127,-1.571498 2.101905,-1.512197 0.700635,0.05932 2.393833,1.037787 2.94851,0.978487 0.554666,-0.05932 2.393833,-0.444772 2.948499,-0.326168 0.554666,0.118614 2.539802,-0.593017 2.948499,-0.444763 0.408707,0.148254 1.547239,1.037791 1.780788,1.037791 0.233538,0 2.131095,-1.067442 2.714961,-0.948838 0.583856,0.118603 3.211237,0.326159 3.561555,0.08893 0.350317,-0.237207 1.955936,-0.800573 2.218674,-0.71162 0.262738,0.08893 1.780777,1.779057 2.160295,1.808707 0.379507,0.0296 2.043516,-0.652314 2.423023,-0.593012 0.379518,0.05932 2.247874,-0.415112 2.568992,-0.296519 0.321128,0.118614 1.313691,0.919181 1.605629,0.919181 0.291928,0 1.576429,-0.32615 1.664008,-0.50406 0.08754,-0.177904 1.751588,-0.978487 1.985126,-0.978487 0.233549,0 2.189485,0.474424 2.452223,0.859885 0.262738,0.385462 0.525476,2.075552 0.525476,2.342412 0,0.26686 -0.904983,1.42325 -0.875794,1.83836 0.02918,0.41511 1.050953,2.31278 0.992563,2.63894 -0.05836,0.32616 -0.875794,2.10521 -0.788214,2.40173 0.08754,0.29651 0.525476,1.69009 0.554676,2.10521 0.02918,0.41511 -0.554676,2.07557 -0.496286,2.34242 0.05836,0.26686 0.467086,2.04592 0.467086,2.52033 0,0.47442 -0.875794,1.71975 -0.817404,2.13487 0.05836,0.41512 1.021763,2.75753 0.904983,3.2023 -0.116768,0.44476 -0.700635,0.44476 -0.700635,0.85988 0,0.41511 0.904995,3.32091 0.788215,3.88427 -0.116769,0.56337 -1.021753,2.28313 -0.817404,2.69824 0.204348,0.41511 0.467086,2.54998 0.350317,2.90579 -0.116769,0.35581 -0.642245,0.85986 -0.642245,1.2157 0,0.35578 0.788215,2.72787 0.525476,3.17264 -0.262738,0.44476 -2.101905,0.68198 -2.393833,0.68198 -0.291938,0 -1.897557,-0.80059 -2.247874,-0.74128 -0.350318,0.0593 -2.539803,1.21568 -2.948499,1.21568 -0.408708,0 -1.664009,-0.74126 -1.955947,-0.71162 -0.291928,0.0296 -2.393833,0.59303 -2.714961,0.47441 -0.321117,-0.1186 -1.284491,-0.91917 -1.634808,-0.91917 -0.350318,0 -2.714961,0.94883 -3.036089,0.97847 -0.321118,0.0296 -2.131095,-0.68195 -2.393833,-0.6523 -0.262739,0.0296 -1.809967,-0.50406 -2.131095,-0.32617 -0.321128,0.1779 -1.40127,0.53373 -1.809978,0.53373 -0.408697,0 -2.393833,-0.83024 -2.77334,-0.80059 -0.379507,0.0296 -2.598192,1.06743 -3.094468,0.97848 -0.496287,-0.0889 -2.89012,-0.85987 -3.240438,-0.80058 -0.350317,0.0593 -3.853493,1.12675 -4.17461,0.83023 -0.321128,-0.29651 -0.583866,-2.57963 -0.408707,-2.99474 0.175158,-0.4151 0.934183,-1.77906 0.934183,-2.19418 0,-0.4151 -1.37208,-2.34242 -1.37208,-2.81683 0,-0.47441 0.467086,-2.16452 0.467086,-2.40173 0,-0.23721 0.496287,-2.16452 0.437897,-2.75754 -0.05836,-0.59301 -0.642245,-1.71975 -0.613056,-2.10521 0.02918,-0.38547 0.963374,-2.25347 0.963374,-2.63893 0,-0.38546 -1.576429,-1.71976 -1.51804,-2.13487 0.05836,-0.41511 1.342881,-1.77906 1.313691,-2.04592 -0.02918,-0.26686 -0.467086,-1.66045 -0.437897,-1.92731 0.02918,-0.26685 -0.145969,-2.19417 -0.116769,-2.54998 0.02918,-0.35581 0.875794,-2.13487 0.788215,-2.52033 -0.08754,-0.38546 -1.576429,-2.19417 -1.54724,-2.52033 0.02918,-0.32616 1.138533,-1.6901 1.109343,-2.01626 -0.02918,-0.32617 0.496276,-2.75754 0.496276,-2.75754 z"
       id="path4167"
       inkscape:connector-curvature="0" />
    <rect
       y="96.164856"
       x="70.774132"
       height="43.767445"
       width="43.767445"
       id="rect9957"
       style="opacity:1;fill:#666666;fill-opacity:1;stroke:none;stroke-width:1;stroke-linecap:round;stroke-miterlimit:4;stroke-dasharray:none;stroke-opacity:1" />
    <path
       inkscape:connector-curvature="0"
       id="path9959"
       d="m 75.203988,100.55435 c 0.437897,-0.622661 1.401259,-1.571498 2.101895,-1.512197 0.700635,0.05932 2.393843,1.037787 2.948509,0.978487 0.554666,-0.05932 2.393833,-0.444772 2.948499,-0.326168 0.554677,0.118614 2.539802,-0.593017 2.94851,-0.444763 0.408697,0.148254 1.547229,1.037791 1.780777,1.037791 0.233549,0 2.131095,-1.067442 2.714961,-0.948838 0.583866,0.118603 3.211237,0.326159 3.561555,0.08893 0.350318,-0.237207 1.955947,-0.800573 2.218685,-0.71162 0.262738,0.08893 1.780777,1.779057 2.160284,1.808707 0.379504,0.0296 2.043517,-0.652314 2.423017,-0.593012 0.37952,0.05932 2.24788,-0.415112 2.56901,-0.296519 0.32112,0.118614 1.31369,0.919181 1.60561,0.919181 0.29193,0 1.57643,-0.32615 1.66401,-0.50406 0.0875,-0.177904 1.75159,-0.978487 1.98512,-0.978487 0.23355,0 2.18949,0.474424 2.45223,0.859885 0.26273,0.385462 0.52547,2.075552 0.52547,2.342412 0,0.26686 -0.90498,1.42325 -0.87579,1.83836 0.0292,0.41511 1.05095,2.31278 0.99256,2.63894 -0.0584,0.32616 -0.87578,2.10521 -0.7882,2.40173 0.0875,0.29651 0.52547,1.69009 0.55466,2.10521 0.0292,0.41511 -0.55466,2.07557 -0.49628,2.34242 0.0584,0.26686 0.46709,2.04592 0.46709,2.52033 0,0.47442 -0.87579,1.71975 -0.81741,2.13487 0.0584,0.41512 1.02176,2.75753 0.90498,3.2023 -0.11677,0.44476 -0.70062,0.44476 -0.70062,0.85988 0,0.41511 0.90498,3.32091 0.78821,3.88427 -0.11678,0.56337 -1.02176,2.28313 -0.81741,2.69824 0.20436,0.41511 0.4671,2.54998 0.35032,2.90579 -0.11677,0.35581 -0.64225,0.85986 -0.64225,1.2157 0,0.35578 0.78822,2.72787 0.52548,3.17264 -0.26274,0.44476 -2.10191,0.68198 -2.39384,0.68198 -0.29193,0 -1.89755,-0.80059 -2.24787,-0.74128 -0.35032,0.0593 -2.53979,1.21568 -2.9485,1.21568 -0.4087,0 -1.664,-0.74126 -1.95594,-0.71162 -0.29193,0.0296 -2.393835,0.59303 -2.714952,0.47441 -0.321125,-0.1186 -1.284498,-0.91917 -1.634816,-0.91917 -0.350318,0 -2.714961,0.94883 -3.036078,0.97847 -0.321128,0.0296 -2.131095,-0.68195 -2.393844,-0.6523 -0.262738,0.0296 -1.809967,-0.50406 -2.131095,-0.32617 -0.321117,0.1779 -1.40127,0.53373 -1.809967,0.53373 -0.408707,0 -2.393844,-0.83024 -2.773351,-0.80059 -0.379507,0.0296 -2.598181,1.06743 -3.094468,0.97848 -0.496287,-0.0889 -2.89012,-0.85987 -3.240437,-0.80058 -0.350318,0.0593 -3.853483,1.12675 -4.174611,0.83023 -0.321128,-0.29651 -0.583866,-2.57963 -0.408707,-2.99474 0.175159,-0.4151 0.934183,-1.77906 0.934183,-2.19418 0,-0.4151 -1.37208,-2.34242 -1.37208,-2.81683 0,-0.47441 0.467097,-2.16452 0.467097,-2.40173 0,-0.23721 0.496276,-2.16452 0.437897,-2.75754 -0.05836,-0.59301 -0.642256,-1.71975 -0.613056,-2.10521 0.02918,-0.38547 0.963374,-2.25347 0.963374,-2.63893 0,-0.38546 -1.576429,-1.71976 -1.51805,-2.13487 0.05836,-0.41511 1.342891,-1.77906 1.31369,-2.04592 -0.02918,-0.26686 -0.467086,-1.66045 -0.437896,-1.92731 0.02918,-0.26685 -0.145959,-2.19417 -0.116769,-2.54998 0.02918,-0.35581 0.875793,-2.13487 0.788214,-2.52033 -0.08754,-0.38546 -1.576429,-2.19417 -1.547239,-2.52033 0.02918,-0.32616 1.138532,-1.6901 1.109342,-2.01626 -0.02918,-0.32617 0.496287,-2.75754 0.496287,-2.75754 z"
       style="fill:#838383;fill-opacity:1;fill-rule:evenodd;stroke:none;stroke-width:1px;stroke-linecap:butt;stroke-linejoin:miter;stroke-opacity:1" />
    <g
       transform="matrix(1.4639453,0,0,1.4639453,149.77095,48.075947)"
       style="font-style:normal;font-weight:normal;font-size:40px;line-height:125%;font-family:sans-serif;letter-spacing:0px;word-spacing:0px;fill:#702f00;fill-opacity:1;stroke:none;stroke-width:1px;stroke-linecap:butt;stroke-linejoin:miter;stroke-opacity:1"
       id="flowRoot6297-3">
      <path
         d="m -50.529297,-9.9034711 0,10.87890629 10.878906,0 0,3.32031251 -10.878906,0 0,10.8789063 -3.28125,0 0,-10.8789063 -10.878906,0 0,-3.32031251 10.878906,0 0,-10.87890629 3.28125,0 z"
         id="path4163"
         inkscape:connector-curvature="0" />
    </g>
  </g>
</svg>
