<?xml version="1.0" encoding="UTF-8" standalone="no"?>
<!-- Created with Inkscape (http://www.inkscape.org/) -->

<svg
   xmlns:osb="http://www.openswatchbook.org/uri/2009/osb"
   xmlns:dc="http://purl.org/dc/elements/1.1/"
   xmlns:cc="http://creativecommons.org/ns#"
   xmlns:rdf="http://www.w3.org/1999/02/22-rdf-syntax-ns#"
   xmlns:svg="http://www.w3.org/2000/svg"
   xmlns="http://www.w3.org/2000/svg"
   xmlns:sodipodi="http://sodipodi.sourceforge.net/DTD/sodipodi-0.dtd"
   xmlns:inkscape="http://www.inkscape.org/namespaces/inkscape"
   width="30.878712mm"
   height="43.125015mm"
   viewBox="0 0 109.41276 152.80517"
   id="svg2"
   version="1.1"
   inkscape:version="0.91 r13725"
   sodipodi:docname="dig_passage.svg">
  <defs
     id="defs4">
    <linearGradient
       id="linearGradient5624"
       osb:paint="solid">
      <stop
         style="stop-color:#0000ff;stop-opacity:1;"
         offset="0"
         id="stop5626" />
    </linearGradient>
  </defs>
  <sodipodi:namedview
     id="base"
     pagecolor="#ffffff"
     bordercolor="#666666"
     borderopacity="1.0"
     inkscape:pageopacity="0.0"
     inkscape:pageshadow="2"
     inkscape:zoom="1.979899"
     inkscape:cx="-82.10329"
     inkscape:cy="89.100086"
     inkscape:document-units="px"
     inkscape:current-layer="layer1"
     showgrid="false"
     inkscape:window-width="1920"
     inkscape:window-height="1043"
     inkscape:window-x="1920"
     inkscape:window-y="0"
     inkscape:window-maximized="1"
     fit-margin-top="0"
     fit-margin-left="0"
     fit-margin-right="0"
     fit-margin-bottom="0"
     inkscape:snap-grids="true" />
  <metadata
     id="metadata7">
    <rdf:RDF>
      <cc:Work
         rdf:about="">
        <dc:format>image/svg+xml</dc:format>
        <dc:type
           rdf:resource="http://purl.org/dc/dcmitype/StillImage" />
        <dc:title />
      </cc:Work>
    </rdf:RDF>
  </metadata>
  <g
     inkscape:label="Layer 1"
     inkscape:groupmode="layer"
     id="layer1"
     transform="translate(-15.539889,-15.914851)">
    <rect
       style="fill:#e4b884;fill-opacity:1;fill-rule:evenodd;stroke:#702f00;stroke-width:0.651;stroke-linecap:butt;stroke-linejoin:miter;stroke-opacity:1;stroke-miterlimit:4;stroke-dasharray:none"
       id="rect3336"
       width="109.26127"
       height="152.65369"
       x="15.615634"
       y="15.990596"
       ry="7.6832266" />
    <rect
       style="opacity:1;fill:#666666;fill-opacity:1;stroke:none;stroke-width:1;stroke-linecap:round;stroke-miterlimit:4;stroke-dasharray:none;stroke-opacity:1"
       id="rect4136"
       width="43.767445"
       height="43.767445"
       x="27.032127"
       y="96.164856" />
    <path
       style="fill:#838383;fill-opacity:1;fill-rule:evenodd;stroke:none;stroke-width:1px;stroke-linecap:butt;stroke-linejoin:miter;stroke-opacity:1"
       d="m 31.461977,100.55435 c 0.437897,-0.622661 1.40127,-1.571498 2.101905,-1.512197 0.700635,0.05932 2.393833,1.037787 2.94851,0.978487 0.554666,-0.05932 2.393833,-0.444772 2.948499,-0.326168 0.554666,0.118614 2.539802,-0.593017 2.948499,-0.444763 0.408707,0.148254 1.547239,1.037791 1.780788,1.037791 0.233538,0 2.131095,-1.067442 2.714961,-0.948838 0.583856,0.118603 3.211237,0.326159 3.561555,0.08893 0.350317,-0.237207 1.955936,-0.800573 2.218674,-0.71162 0.262738,0.08893 1.780777,1.779057 2.160295,1.808707 0.379507,0.0296 2.043516,-0.652314 2.423023,-0.593012 0.379518,0.05932 2.247874,-0.415112 2.568992,-0.296519 0.321128,0.118614 1.313691,0.919181 1.605629,0.919181 0.291928,0 1.576429,-0.32615 1.664008,-0.50406 0.08754,-0.177904 1.751588,-0.978487 1.985126,-0.978487 0.233549,0 2.189485,0.474424 2.452223,0.859885 0.262738,0.385462 0.525476,2.075552 0.525476,2.342412 0,0.26686 -0.904983,1.42325 -0.875794,1.83836 0.02918,0.41511 1.050953,2.31278 0.992563,2.63894 -0.05836,0.32616 -0.875794,2.10521 -0.788214,2.40173 0.08754,0.29651 0.525476,1.69009 0.554676,2.10521 0.02918,0.41511 -0.554676,2.07557 -0.496286,2.34242 0.05836,0.26686 0.467086,2.04592 0.467086,2.52033 0,0.47442 -0.875794,1.71975 -0.817404,2.13487 0.05836,0.41512 1.021763,2.75753 0.904983,3.2023 -0.116768,0.44476 -0.700635,0.44476 -0.700635,0.85988 0,0.41511 0.904995,3.32091 0.788215,3.88427 -0.116769,0.56337 -1.021753,2.28313 -0.817404,2.69824 0.204348,0.41511 0.467086,2.54998 0.350317,2.90579 -0.116769,0.35581 -0.642245,0.85986 -0.642245,1.2157 0,0.35578 0.788215,2.72787 0.525476,3.17264 -0.262738,0.44476 -2.101905,0.68198 -2.393833,0.68198 -0.291938,0 -1.897557,-0.80059 -2.247874,-0.74128 -0.350318,0.0593 -2.539803,1.21568 -2.948499,1.21568 -0.408708,0 -1.664009,-0.74126 -1.955947,-0.71162 -0.291928,0.0296 -2.393833,0.59303 -2.714961,0.47441 -0.321117,-0.1186 -1.284491,-0.91917 -1.634808,-0.91917 -0.350318,0 -2.714961,0.94883 -3.036089,0.97847 -0.321118,0.0296 -2.131095,-0.68195 -2.393833,-0.6523 -0.262739,0.0296 -1.809967,-0.50406 -2.131095,-0.32617 -0.321128,0.1779 -1.40127,0.53373 -1.809978,0.53373 -0.408697,0 -2.393833,-0.83024 -2.77334,-0.80059 -0.379507,0.0296 -2.598192,1.06743 -3.094468,0.97848 -0.496287,-0.0889 -2.89012,-0.85987 -3.240438,-0.80058 -0.350317,0.0593 -3.853493,1.12675 -4.17461,0.83023 -0.321128,-0.29651 -0.583866,-2.57963 -0.408707,-2.99474 0.175158,-0.4151 0.934183,-1.77906 0.934183,-2.19418 0,-0.4151 -1.37208,-2.34242 -1.37208,-2.81683 0,-0.47441 0.467086,-2.16452 0.467086,-2.40173 0,-0.23721 0.496287,-2.16452 0.437897,-2.75754 -0.05836,-0.59301 -0.642245,-1.71975 -0.613056,-2.10521 0.02918,-0.38547 0.963374,-2.25347 0.963374,-2.63893 0,-0.38546 -1.576429,-1.71976 -1.51804,-2.13487 0.05836,-0.41511 1.342881,-1.77906 1.313691,-2.04592 -0.02918,-0.26686 -0.467086,-1.66045 -0.437897,-1.92731 0.02918,-0.26685 -0.145969,-2.19417 -0.116769,-2.54998 0.02918,-0.35581 0.875794,-2.13487 0.788215,-2.52033 -0.08754,-0.38546 -1.576429,-2.19417 -1.54724,-2.52033 0.02918,-0.32616 1.138533,-1.6901 1.109343,-2.01626 -0.02918,-0.32617 0.496276,-2.75754 0.496276,-2.75754 z"
       id="path4167"
       inkscape:connector-curvature="0" />
    <rect
       style="opacity:1;fill:#666666;fill-opacity:1;stroke:none;stroke-width:1;stroke-linecap:round;stroke-miterlimit:4;stroke-dasharray:none;stroke-opacity:1"
       id="rect4136-5"
       width="43.891277"
       height="43.891277"
       x="70.796837"
       y="96.165756" />
    <path
       style="fill:#838383;fill-opacity:1;fill-rule:evenodd;stroke:none;stroke-width:1px;stroke-linecap:butt;stroke-linejoin:miter;stroke-opacity:1"
       d="m 90.798129,97.312839 c 0.685403,-0.186927 1.682352,-0.186927 2.118516,0.186927 0.436166,0.373857 0.99695,1.806976 0.810022,2.118514 -0.186928,0.311557 -0.0623,0.373861 0.06231,1.05926 0.12462,0.6854 0.996952,1.18388 0.810023,1.62004 -0.186929,0.43617 -0.249237,1.12157 -0.12462,1.55773 0.12462,0.43617 0.186928,1.3085 0.186928,1.49544 0,0.18692 -0.124617,0.18692 -0.186928,0.7477 -0.06231,0.56079 -0.311546,0.87233 -0.124617,1.37081 0.186928,0.49848 0.249237,1.30849 0.373857,1.74466 0.124617,0.43617 0.436165,1.18387 0.249236,1.49543 -0.186927,0.31154 -0.249236,1.30849 -0.249236,1.30849 0,0 0.436165,0.6854 0.685403,1.05925 0.249235,0.37386 0.623092,0.31156 1.183875,0.49848 0.560785,0.18693 1.308496,0.12462 1.869278,0.18693 0.560789,0.0623 0.934643,-0.31155 1.370805,-0.37385 0.436169,-0.0623 1.557729,0.31154 1.931589,0.49847 0.37386,0.18693 0.56078,0.18693 1.12157,0.18693 0.56079,0 0.62309,-0.12462 1.24619,-0.12462 0.62309,0 1.49543,-0.12462 2.43006,-0.24924 0.93464,-0.12462 1.05926,0.43616 1.55773,0.56078 0.49848,0.12462 1.43312,0.24923 1.9316,0.24923 0.49847,0 1.49542,-0.24923 1.86927,0.12463 0.37386,0.37386 0.87233,0.37386 0.93465,0.99695 0.0622,0.62309 0.12461,0.99695 0.12461,1.49542 0,0.49848 0.12462,1.05926 0,1.55774 -0.12461,0.49848 -0.6854,1.18388 -0.31154,1.68235 0.37385,0.49847 0,0.81003 0.12461,1.37081 0.12462,0.56077 0.12462,0.81002 -0.0623,1.43311 -0.18693,0.6231 -0.18693,0.68541 -0.24923,1.37081 -0.0624,0.68541 0.31153,1.3708 0.31153,2.11852 0,0.7477 -0.49847,0.6854 -1.12156,0.99694 -0.6231,0.31155 -0.56078,-0.43616 -1.12157,-0.99694 -0.56079,-0.56079 -2.30544,-0.49848 -2.30544,-0.49848 0,0 -0.43618,-0.93463 -0.74772,-1.18389 -0.31154,-0.24923 0.56079,-1.37079 0.31154,-1.80696 -0.24923,-0.43616 -1.12156,-0.81002 -1.55773,-0.81002 -0.43616,0 -1.18387,-0.0624 -1.68234,0.24924 -0.49849,0.31155 -0.68541,-0.0624 -1.37081,-0.24924 -0.68541,-0.18693 -0.31155,-0.93464 -0.99695,-1.3085 -0.6854,-0.37386 -1.93159,-0.56078 -1.93159,-0.56078 0,0 -1.121567,0.18692 -1.557738,0.49847 -0.436163,0.31156 -1.62004,0.0624 -2.243132,0.24924 -0.623094,0.18693 -0.311547,0.99695 -0.373856,1.74466 -0.06231,0.74772 0.06231,1.24619 0.498474,1.62004 0.436165,0.37385 0.623093,1.05926 0.311547,1.43312 -0.311547,0.37386 -0.311547,1.3708 -0.249238,1.93159 0.06231,0.56078 0.12462,1.43311 0.311547,1.74466 0.186929,0.31155 0.311547,0.81003 0.436166,1.43312 0.124617,0.62309 0.06231,1.18388 0.06231,1.55774 0,0.37384 0.124619,1.05925 -0.06231,1.37079 -0.186929,0.31154 -0.186929,0.68541 -0.186929,1.49543 0,0.81002 0.06231,0.81002 0.249237,1.37081 0.186929,0.56079 -0.124617,0.99695 -0.436165,1.12156 -0.311546,0.12462 -2.056207,0.37386 -2.367754,0.18694 -0.311546,-0.18694 -0.498474,-0.56079 -1.059259,-1.18388 -0.560782,-0.6231 -0.311546,-0.37387 -0.685402,-0.12462 -0.373855,0.24923 -0.560783,0.37385 -1.183877,-0.37386 -0.623093,-0.74771 -0.560785,-1.43312 -0.685403,-1.93159 -0.124619,-0.49848 0,-0.81002 0.249238,-1.24619 0.249236,-0.43617 1.059259,-0.49847 0.74771,-1.24617 -0.311545,-0.74772 -0.74771,-0.99696 -0.74771,-1.68237 0,-0.6854 0.06231,-1.37081 0.06231,-1.74466 0,-0.37386 -0.436165,-1.05926 -0.436165,-1.05926 0,0 -0.124618,-0.68539 -0.311545,-1.24618 -0.186929,-0.56079 0.124618,-0.49848 0.249236,-0.87234 0.12462,-0.37385 0.186928,-1.3708 0.06231,-1.68234 -0.124618,-0.31156 -0.311545,-0.31156 -0.623094,-0.68541 -0.311545,-0.37385 -0.373854,-0.93464 -0.436164,-1.37081 -0.06231,-0.43616 0.06231,-1.05926 -0.249238,-1.30849 -0.311546,-0.24923 -1.183877,-0.81002 -1.433113,-0.6854 -0.24924,0.12462 -0.99695,0.12462 -1.308496,0.37385 -0.311548,0.24924 -1.370807,1.05926 -1.682354,0.56078 -0.311546,-0.49846 -0.560784,-0.81001 -0.996948,-0.62308 -0.436166,0.18692 -0.249238,0.18692 -0.996949,0.31154 -0.747712,0.12461 -2.180828,-0.31154 -2.616992,-0.31154 -0.436166,0 -0.373856,0.12462 -0.934641,0.49847 -0.560784,0.37385 -1.121567,0.49848 -1.495423,0.12461 -0.373856,-0.37385 -0.685403,-0.37385 -0.685403,-0.37385 0,0 -0.93464,-0.37386 -1.246187,-0.12461 -0.311546,0.24923 -0.560784,0.49846 -0.934639,0.6854 -0.373856,0.18693 -1.246187,-0.49848 -1.869281,-0.37387 -0.623093,0.12462 -0.560784,-1.37079 -0.996949,-1.24618 -0.436165,0.12462 -0.311546,-1.62004 -0.06231,-1.86927 0.249238,-0.24924 1.059258,-1.37081 0.560783,-1.55774 -0.498474,-0.18693 0.560785,-1.24619 0.810022,-1.55774 0.249237,-0.31154 1.557734,0.24925 1.993899,0.6231 0.436165,0.37385 0.685403,0.87233 1.059259,0.49847 0.373856,-0.37385 2.6793,0.12462 1.806969,-0.37385 -0.87233,-0.49847 1.869281,0.18693 2.305446,0.12461 0.436166,-0.0622 1.869279,-0.18692 2.305446,-0.18692 0.436164,0 1.495424,-0.93464 0.810021,-1.05926 -0.685402,-0.12462 -0.124619,-1.12157 -0.06231,-1.3085 0.06231,-0.18692 0.436165,-0.62309 0.872331,-0.74771 0.436165,-0.12461 1.121568,-0.56078 1.121568,-1.05925 0,-0.49849 -0.685403,-0.43618 -0.685403,-1.24619 0,-0.81003 0.810021,-0.6231 0.747712,-1.05926 -0.06231,-0.43617 1.121569,-1.05926 0.93464,-1.55774 -0.186928,-0.49848 -0.373856,-0.93464 -0.373856,-1.49541 0,-0.5608 0.560785,-0.93465 0.373856,-1.55774 -0.186928,-0.6231 -0.436164,-0.68541 -0.186928,-1.24619 0.249238,-0.56078 0.93464,-0.18693 1.121568,-0.93464 0.186928,-0.74772 0.810021,-1.12157 0.06231,-1.55773 -0.74771,-0.436173 -0.311545,-0.436173 -0.249236,-0.747711 0.06231,-0.311547 0.996949,-0.623096 1.183878,-1.183879 0.186928,-0.560785 1.931589,-0.934641 1.931589,-0.934641 z"
       id="path6601"
       inkscape:connector-curvature="0" />
    <g
       transform="matrix(1.4639453,0,0,1.4639453,146.96712,48.189044)"
       style="font-style:normal;font-weight:normal;font-size:40px;line-height:125%;font-family:sans-serif;letter-spacing:0px;word-spacing:0px;fill:#702f00;fill-opacity:1;stroke:none;stroke-width:1px;stroke-linecap:butt;stroke-linejoin:miter;stroke-opacity:1"
       id="flowRoot6297">
      <path
         d="m -50.529297,-9.9034711 0,10.87890629 10.878906,0 0,3.32031251 -10.878906,0 0,10.8789063 -3.28125,0 0,-10.8789063 -10.878906,0 0,-3.32031251 10.878906,0 0,-10.87890629 3.28125,0 z"
         id="path4163"
         inkscape:connector-curvature="0" />
    </g>
  </g>
</svg>
