<?xml version="1.0" encoding="UTF-8" standalone="no"?>
<!-- Created with Inkscape (http://www.inkscape.org/) -->

<svg
   xmlns:osb="http://www.openswatchbook.org/uri/2009/osb"
   xmlns:dc="http://purl.org/dc/elements/1.1/"
   xmlns:cc="http://creativecommons.org/ns#"
   xmlns:rdf="http://www.w3.org/1999/02/22-rdf-syntax-ns#"
   xmlns:svg="http://www.w3.org/2000/svg"
   xmlns="http://www.w3.org/2000/svg"
   xmlns:sodipodi="http://sodipodi.sourceforge.net/DTD/sodipodi-0.dtd"
   xmlns:inkscape="http://www.inkscape.org/namespaces/inkscape"
   width="30.878712mm"
   height="43.125015mm"
   viewBox="0 0 109.41276 152.80517"
   id="svg2"
   version="1.1"
   inkscape:version="0.92.1 r"
   sodipodi:docname="farming.svg">
  <defs
     id="defs4">
    <linearGradient
       id="linearGradient5624"
       osb:paint="solid">
      <stop
         style="stop-color:#0000ff;stop-opacity:1;"
         offset="0"
         id="stop5626" />
    </linearGradient>
  </defs>
  <sodipodi:namedview
     id="base"
     pagecolor="#ffffff"
     bordercolor="#666666"
     borderopacity="1.0"
     inkscape:pageopacity="0.0"
     inkscape:pageshadow="2"
     inkscape:zoom="2.8"
     inkscape:cx="-179.78813"
     inkscape:cy="56.209964"
     inkscape:document-units="px"
     inkscape:current-layer="layer1"
     showgrid="false"
     inkscape:window-width="1920"
     inkscape:window-height="1043"
     inkscape:window-x="1920"
     inkscape:window-y="0"
     inkscape:window-maximized="1"
     fit-margin-top="0"
     fit-margin-left="0"
     fit-margin-right="0"
     fit-margin-bottom="0"
     inkscape:snap-grids="true" />
  <metadata
     id="metadata7">
    <rdf:RDF>
      <cc:Work
         rdf:about="">
        <dc:format>image/svg+xml</dc:format>
        <dc:type
           rdf:resource="http://purl.org/dc/dcmitype/StillImage" />
        <dc:title />
      </cc:Work>
    </rdf:RDF>
  </metadata>
  <g
     inkscape:label="Layer 1"
     inkscape:groupmode="layer"
     id="layer1"
     transform="translate(-15.539889,-15.914851)">
    <rect
       style="fill:#e4b884;fill-opacity:1;fill-rule:evenodd;stroke:#702f00;stroke-width:0.651;stroke-linecap:butt;stroke-linejoin:miter;stroke-opacity:1;stroke-miterlimit:4;stroke-dasharray:none"
       id="rect3336"
       width="109.26127"
       height="152.65369"
       x="15.615634"
       y="15.990596"
       ry="7.6832266" />
    <flowRoot
       xml:space="preserve"
       id="flowRoot4786"
       style="fill:black;stroke:none;stroke-opacity:1;stroke-width:1px;stroke-linejoin:miter;stroke-linecap:butt;fill-opacity:1;font-family:sans-serif;font-style:normal;font-weight:normal;font-size:16px;line-height:125%;letter-spacing:0px;word-spacing:0px;"><flowRegion
         id="flowRegion4788"
         style="font-size:16px;"><rect
           id="rect4790"
           width="108.92857"
           height="31.071428"
           x="3.9285715"
           y="116.56361"
           style="font-size:16px;" /></flowRegion><flowPara
         id="flowPara4792" /></flowRoot>    <g
       aria-label="Farming"
       transform="matrix(0.9375,0,0,0.9375,15.539889,15.914851)"
       style="font-style:normal;font-weight:normal;font-size:14.66666698px;line-height:125%;font-family:sans-serif;letter-spacing:0px;word-spacing:0px;fill:#000000;fill-opacity:1;stroke:none;stroke-width:1px;stroke-linecap:butt;stroke-linejoin:miter;stroke-opacity:1"
       id="flowRoot4821">
      <path
         d="m 6.0820313,114.91927 h 6.1445317 v 1.21745 H 7.5286459 v 3.15104 h 4.2395831 v 1.21745 H 7.5286459 v 5.10612 H 6.0820313 Z"
         style=""
         id="path8404" />
      <path
         d="m 16.774089,121.57943 q -1.597005,0 -2.212891,0.36523 -0.615885,0.36524 -0.615885,1.2461 0,0.70182 0.458333,1.11718 0.465495,0.40821 1.260417,0.40821 1.095703,0 1.754557,-0.77344 0.666016,-0.7806 0.666016,-2.06966 v -0.29362 z m 2.628255,-0.54427 v 4.57617 h -1.317708 v -1.21745 q -0.451172,0.73047 -1.124349,1.08138 -0.673177,0.34375 -1.647136,0.34375 -1.23177,0 -1.962239,-0.6875 -0.723307,-0.69466 -0.723307,-1.85482 0,-1.35351 0.902343,-2.04101 0.909506,-0.6875 2.707032,-0.6875 h 1.847656 v -0.12891 q 0,-0.9095 -0.601563,-1.40364 -0.594401,-0.50131 -1.675781,-0.50131 -0.6875,0 -1.339193,0.16472 -0.651692,0.16471 -1.253255,0.49414 v -1.21745 q 0.723307,-0.2793 1.403646,-0.41537 0.680339,-0.14322 1.32487,-0.14322 1.740234,0 2.599609,0.90234 0.859375,0.90234 0.859375,2.73568 z"
         style=""
         id="path8406" />
      <path
         d="m 26.771485,118.82227 q -0.222005,-0.12891 -0.486979,-0.1862 -0.257813,-0.0645 -0.572917,-0.0645 -1.117187,0 -1.71875,0.73047 -0.594401,0.72331 -0.594401,2.08399 v 4.22526 h -1.32487 v -8.02084 h 1.32487 v 1.2461 q 0.415365,-0.73047 1.08138,-1.08138 0.666016,-0.35807 1.61849,-0.35807 0.136068,0 0.300781,0.0215 0.164714,0.0143 0.365235,0.0501 z"
         style=""
         id="path8408" />
      <path
         d="m 34.154949,119.13021 q 0.494141,-0.88802 1.181641,-1.31055 0.6875,-0.42252 1.61849,-0.42252 1.253255,0 1.933593,0.88085 0.680339,0.8737 0.680339,2.49219 v 4.84115 h -1.32487 v -4.79818 q 0,-1.15299 -0.408203,-1.71159 -0.408203,-0.55859 -1.246094,-0.55859 -1.024088,0 -1.618489,0.68034 -0.594401,0.68034 -0.594401,1.85482 v 4.5332 h -1.32487 v -4.79818 q 0,-1.16016 -0.408203,-1.71159 -0.408204,-0.55859 -1.260417,-0.55859 -1.009766,0 -1.604167,0.6875 -0.594401,0.68034 -0.594401,1.84766 v 4.5332 h -1.32487 v -8.02084 h 1.32487 v 1.2461 q 0.451172,-0.73763 1.08138,-1.08854 0.630209,-0.35091 1.496745,-0.35091 0.873698,0 1.482422,0.44401 0.615886,0.44401 0.909505,1.28906 z"
         style=""
         id="path8410" />
      <path
         d="m 42.204427,117.59049 h 1.317708 v 8.02084 h -1.317708 z m 0,-3.12239 h 1.317708 v 1.66862 h -1.317708 z"
         style=""
         id="path8412" />
      <path
         d="m 52.939456,120.77018 v 4.84115 h -1.317709 v -4.79818 q 0,-1.13867 -0.44401,-1.70443 -0.44401,-0.56575 -1.332031,-0.56575 -1.067058,0 -1.682943,0.68034 -0.615885,0.68034 -0.615885,1.85482 v 4.5332 h -1.32487 v -8.02084 h 1.32487 v 1.2461 q 0.472656,-0.72331 1.110026,-1.08138 0.644531,-0.35807 1.482422,-0.35807 1.382161,0 2.091145,0.85937 0.708985,0.85221 0.708985,2.51367 z"
         style=""
         id="path8414" />
      <path
         d="m 60.860027,121.50781 q 0,-1.43229 -0.594401,-2.22005 Q 59.678387,118.5 58.611329,118.5 q -1.059895,0 -1.654296,0.78776 -0.58724,0.78776 -0.58724,2.22005 0,1.42513 0.58724,2.21289 0.594401,0.78776 1.654296,0.78776 1.067058,0 1.654297,-0.78776 0.594401,-0.78776 0.594401,-2.21289 z m 1.317709,3.10808 q 0,2.04817 -0.909505,3.04362 -0.909506,1.0026 -2.785808,1.0026 -0.694661,0 -1.310547,-0.10742 -0.615885,-0.10026 -1.195963,-0.31511 v -1.2819 q 0.580078,0.31511 1.145833,0.4655 0.565755,0.15039 1.152995,0.15039 1.296224,0 1.940755,-0.68034 0.644531,-0.67318 0.644531,-2.04102 v -0.65169 q -0.408203,0.70899 -1.045572,1.0599 -0.63737,0.35091 -1.525391,0.35091 -1.475261,0 -2.377604,-1.12435 -0.902344,-1.12435 -0.902344,-2.97917 0,-1.86198 0.902344,-2.98633 0.902343,-1.12434 2.377604,-1.12434 0.888021,0 1.525391,0.35091 0.637369,0.35091 1.045572,1.05989 v -1.21745 h 1.317709 z"
         style=""
         id="path8416" />
    </g>
  </g>
</svg>
