<?xml version="1.0" encoding="UTF-8" standalone="no"?>
<!-- Created with Inkscape (http://www.inkscape.org/) -->

<svg
   xmlns:osb="http://www.openswatchbook.org/uri/2009/osb"
   xmlns:dc="http://purl.org/dc/elements/1.1/"
   xmlns:cc="http://creativecommons.org/ns#"
   xmlns:rdf="http://www.w3.org/1999/02/22-rdf-syntax-ns#"
   xmlns:svg="http://www.w3.org/2000/svg"
   xmlns="http://www.w3.org/2000/svg"
   xmlns:sodipodi="http://sodipodi.sourceforge.net/DTD/sodipodi-0.dtd"
   xmlns:inkscape="http://www.inkscape.org/namespaces/inkscape"
   width="30.878712mm"
   height="43.125015mm"
   viewBox="0 0 109.41276 152.80517"
   id="svg2"
   version="1.1"
   inkscape:version="0.92.1 r"
   sodipodi:docname="gather_wood.svg">
  <defs
     id="defs4">
    <linearGradient
       id="linearGradient5624"
       osb:paint="solid">
      <stop
         style="stop-color:#0000ff;stop-opacity:1;"
         offset="0"
         id="stop5626" />
    </linearGradient>
  </defs>
  <sodipodi:namedview
     id="base"
     pagecolor="#ffffff"
     bordercolor="#666666"
     borderopacity="1.0"
     inkscape:pageopacity="0.0"
     inkscape:pageshadow="2"
     inkscape:zoom="2.8"
     inkscape:cx="-179.78813"
     inkscape:cy="56.209964"
     inkscape:document-units="px"
     inkscape:current-layer="layer1"
     showgrid="false"
     inkscape:window-width="1920"
     inkscape:window-height="1043"
     inkscape:window-x="1920"
     inkscape:window-y="0"
     inkscape:window-maximized="1"
     fit-margin-top="0"
     fit-margin-left="0"
     fit-margin-right="0"
     fit-margin-bottom="0"
     inkscape:snap-grids="true" />
  <metadata
     id="metadata7">
    <rdf:RDF>
      <cc:Work
         rdf:about="">
        <dc:format>image/svg+xml</dc:format>
        <dc:type
           rdf:resource="http://purl.org/dc/dcmitype/StillImage" />
        <dc:title />
      </cc:Work>
    </rdf:RDF>
  </metadata>
  <g
     inkscape:label="Layer 1"
     inkscape:groupmode="layer"
     id="layer1"
     transform="translate(-15.539889,-15.914851)">
    <rect
       style="fill:#e4b884;fill-opacity:1;fill-rule:evenodd;stroke:#702f00;stroke-width:0.651;stroke-linecap:butt;stroke-linejoin:miter;stroke-opacity:1;stroke-miterlimit:4;stroke-dasharray:none"
       id="rect3336"
       width="109.26127"
       height="152.65369"
       x="15.615634"
       y="15.990596"
       ry="7.6832266" />
    <flowRoot
       xml:space="preserve"
       id="flowRoot4786"
       style="fill:black;stroke:none;stroke-opacity:1;stroke-width:1px;stroke-linejoin:miter;stroke-linecap:butt;fill-opacity:1;font-family:sans-serif;font-style:normal;font-weight:normal;font-size:16px;line-height:125%;letter-spacing:0px;word-spacing:0px;"><flowRegion
         id="flowRegion4788"
         style="font-size:16px;"><rect
           id="rect4790"
           width="108.92857"
           height="31.071428"
           x="3.9285715"
           y="116.56361"
           style="font-size:16px;" /></flowRegion><flowPara
         id="flowPara4792" /></flowRoot>    <g
       aria-label="Gather Wood"
       transform="matrix(0.9375,0,0,0.9375,15.539889,15.914851)"
       style="font-style:normal;font-weight:normal;font-size:14.66666698px;line-height:125%;font-family:sans-serif;letter-spacing:0px;word-spacing:0px;fill:#000000;fill-opacity:1;stroke:none;stroke-width:1px;stroke-linecap:butt;stroke-linejoin:miter;stroke-opacity:1"
       id="flowRoot4821">
      <path
         d="m 13.372396,124.08594 v -2.87175 h -2.363281 v -1.1888 h 3.795573 v 4.5905 q -0.837891,0.5944 -1.847657,0.90234 -1.009765,0.30078 -2.155599,0.30078 -2.50651,0 -3.9244788,-1.46094 -1.4108073,-1.4681 -1.4108073,-4.08203 0,-2.62109 1.4108073,-4.08203 1.4179688,-1.4681 3.9244788,-1.4681 1.045573,0 1.983724,0.25781 0.945313,0.25782 1.740235,0.75912 v 1.53971 q -0.802084,-0.68034 -1.704427,-1.02409 -0.902344,-0.34375 -1.897787,-0.34375 -1.9622394,0 -2.9505207,1.09571 -0.9811198,1.0957 -0.9811198,3.26562 0,2.16276 0.9811198,3.25847 0.9882813,1.0957 2.9505207,1.0957 0.766276,0 1.367839,-0.12891 0.601562,-0.13607 1.08138,-0.41536 z"
         style=""
         id="path6662" />
      <path
         d="m 21.042318,121.57943 q -1.597005,0 -2.21289,0.36523 -0.615886,0.36524 -0.615886,1.2461 0,0.70182 0.458334,1.11718 0.465494,0.40821 1.260416,0.40821 1.095704,0 1.754558,-0.77344 0.666015,-0.7806 0.666015,-2.06966 v -0.29362 z m 2.628256,-0.54427 v 4.57617 h -1.317709 v -1.21745 q -0.451172,0.73047 -1.124349,1.08138 -0.673177,0.34375 -1.647135,0.34375 -1.231771,0 -1.96224,-0.6875 -0.723307,-0.69466 -0.723307,-1.85482 0,-1.35351 0.902344,-2.04101 0.909505,-0.6875 2.707031,-0.6875 h 1.847656 v -0.12891 q 0,-0.9095 -0.601562,-1.40364 -0.594401,-0.50131 -1.675781,-0.50131 -0.6875,0 -1.339193,0.16472 -0.651693,0.16471 -1.253255,0.49414 v -1.21745 q 0.723307,-0.2793 1.403645,-0.41537 0.680339,-0.14322 1.32487,-0.14322 1.740235,0 2.59961,0.90234 0.859375,0.90234 0.859375,2.73568 z"
         style=""
         id="path6664" />
      <path
         d="m 27.695313,115.31315 v 2.27734 h 2.714192 v 1.02409 h -2.714192 v 4.35417 q 0,0.98112 0.264974,1.26042 0.272135,0.27929 1.095703,0.27929 h 1.353515 v 1.10287 H 29.05599 q -1.525391,0 -2.105469,-0.56576 -0.580078,-0.57291 -0.580078,-2.07682 v -4.35417 h -0.966797 v -1.02409 h 0.966797 v -2.27734 z"
         style=""
         id="path6666" />
      <path
         d="m 38.817057,120.77018 v 4.84115 h -1.317708 v -4.79818 q 0,-1.13867 -0.44401,-1.70443 -0.444011,-0.56575 -1.332032,-0.56575 -1.067057,0 -1.682942,0.68034 -0.615886,0.68034 -0.615886,1.85482 v 4.5332 h -1.32487 V 114.4681 h 1.32487 v 4.36849 q 0.472656,-0.72331 1.110026,-1.08138 0.644532,-0.35807 1.482422,-0.35807 1.382162,0 2.091146,0.85937 0.708984,0.85221 0.708984,2.51367 z"
         style=""
         id="path6668" />
      <path
         d="m 48.320315,121.27148 v 0.64454 h -6.058594 q 0.08594,1.36067 0.816407,2.07682 0.73763,0.70898 2.048177,0.70898 0.759114,0 1.468099,-0.18619 0.716146,-0.1862 1.417969,-0.5586 v 1.2461 q -0.708985,0.30078 -1.453777,0.45833 -0.744791,0.15755 -1.511067,0.15755 -1.919271,0 -3.04362,-1.11719 -1.117188,-1.11718 -1.117188,-3.02213 0,-1.9694 1.059896,-3.1224 1.067057,-1.16015 2.871745,-1.16015 1.61849,0 2.556641,1.04557 0.945312,1.03841 0.945312,2.82877 z m -1.317708,-0.38671 q -0.01432,-1.08138 -0.608724,-1.72592 -0.58724,-0.64453 -1.561198,-0.64453 -1.102865,0 -1.76888,0.62305 -0.658854,0.62305 -0.759115,1.75456 z"
         style=""
         id="path6670" />
      <path
         d="m 55.130862,118.82227 q -0.222005,-0.12891 -0.486979,-0.1862 -0.257813,-0.0645 -0.572917,-0.0645 -1.117187,0 -1.71875,0.73047 -0.594401,0.72331 -0.594401,2.08399 v 4.22526 h -1.32487 v -8.02084 h 1.32487 v 1.2461 q 0.415365,-0.73047 1.08138,-1.08138 0.666016,-0.35807 1.61849,-0.35807 0.136068,0 0.300781,0.0215 0.164714,0.0143 0.365235,0.0501 z"
         style=""
         id="path6672" />
      <path
         d="m 60.301432,114.91927 h 1.460938 l 2.248698,9.03776 2.241536,-9.03776 h 1.625651 l 2.248698,9.03776 2.241537,-9.03776 h 1.468099 l -2.685547,10.69206 h -1.819011 l -2.255859,-9.28125 -2.277344,9.28125 h -1.81901 z"
         style=""
         id="path6674" />
      <path
         d="m 77.940109,118.51432 q -1.059896,0 -1.675781,0.83073 -0.615885,0.82357 -0.615885,2.26302 0,1.43946 0.608724,2.27019 0.615885,0.82356 1.682942,0.82356 1.052735,0 1.66862,-0.83073 0.615886,-0.83073 0.615886,-2.26302 0,-1.42513 -0.615886,-2.25586 -0.615885,-0.83789 -1.66862,-0.83789 z m 0,-1.11718 q 1.71875,0 2.69987,1.11718 0.98112,1.11719 0.98112,3.09375 0,1.9694 -0.98112,3.09375 -0.98112,1.11719 -2.69987,1.11719 -1.725911,0 -2.707031,-1.11719 -0.973958,-1.12435 -0.973958,-3.09375 0,-1.97656 0.973958,-3.09375 0.98112,-1.11718 2.707031,-1.11718 z"
         style=""
         id="path6676" />
      <path
         d="m 86.90625,118.51432 q -1.059896,0 -1.675781,0.83073 -0.615886,0.82357 -0.615886,2.26302 0,1.43946 0.608724,2.27019 0.615886,0.82356 1.682943,0.82356 1.052734,0 1.66862,-0.83073 0.615885,-0.83073 0.615885,-2.26302 0,-1.42513 -0.615885,-2.25586 -0.615886,-0.83789 -1.66862,-0.83789 z m 0,-1.11718 q 1.71875,0 2.69987,1.11718 0.98112,1.11719 0.98112,3.09375 0,1.9694 -0.98112,3.09375 -0.98112,1.11719 -2.69987,1.11719 -1.725911,0 -2.707031,-1.11719 -0.973959,-1.12435 -0.973959,-3.09375 0,-1.97656 0.973959,-3.09375 0.98112,-1.11718 2.707031,-1.11718 z"
         style=""
         id="path6678" />
      <path
         d="m 98.04232,118.80794 v -4.33984 h 1.317709 v 11.14323 H 98.04232 v -1.20313 q -0.415364,0.71615 -1.052734,1.06706 -0.630208,0.34375 -1.518229,0.34375 -1.453776,0 -2.370443,-1.16016 -0.909505,-1.16015 -0.909505,-3.05078 0,-1.89062 0.909505,-3.05078 0.916667,-1.16015 2.370443,-1.16015 0.888021,0 1.518229,0.35091 0.63737,0.34375 1.052734,1.05989 z m -4.490234,2.80013 q 0,1.45378 0.594401,2.28451 0.601562,0.82357 1.647135,0.82357 1.045573,0 1.647136,-0.82357 0.601562,-0.83073 0.601562,-2.28451 0,-1.45377 -0.601562,-2.27734 Q 96.839195,118.5 95.793622,118.5 q -1.045573,0 -1.647135,0.83073 -0.594401,0.82357 -0.594401,2.27734 z"
         style=""
         id="path6680" />
    </g>
  </g>
</svg>
