<?xml version="1.0" encoding="UTF-8" standalone="no"?>
<!-- Created with Inkscape (http://www.inkscape.org/) -->

<svg
   xmlns:osb="http://www.openswatchbook.org/uri/2009/osb"
   xmlns:dc="http://purl.org/dc/elements/1.1/"
   xmlns:cc="http://creativecommons.org/ns#"
   xmlns:rdf="http://www.w3.org/1999/02/22-rdf-syntax-ns#"
   xmlns:svg="http://www.w3.org/2000/svg"
   xmlns="http://www.w3.org/2000/svg"
   xmlns:sodipodi="http://sodipodi.sourceforge.net/DTD/sodipodi-0.dtd"
   xmlns:inkscape="http://www.inkscape.org/namespaces/inkscape"
   width="30.878712mm"
   height="43.125015mm"
   viewBox="0 0 109.41276 152.80517"
   id="svg2"
   version="1.1"
   inkscape:version="0.92.2 2405546, 2018-03-11"
   sodipodi:docname="gather_food.svg">
  <defs
     id="defs4">
    <marker
       inkscape:stockid="Arrow1Mend"
       orient="auto"
       refY="0.0"
       refX="0.0"
       id="Arrow1Mend"
       style="overflow:visible;"
       inkscape:isstock="true">
      <path
         id="path4113"
         d="M 0.0,0.0 L 5.0,-5.0 L -12.5,0.0 L 5.0,5.0 L 0.0,0.0 z "
         style="fill-rule:evenodd;stroke:#000000;stroke-width:1pt;stroke-opacity:1;fill:#000000;fill-opacity:1"
         transform="scale(0.4) rotate(180) translate(10,0)" />
    </marker>
    <marker
       inkscape:stockid="Arrow1Lend"
       orient="auto"
       refY="0.0"
       refX="0.0"
       id="Arrow1Lend"
       style="overflow:visible;"
       inkscape:isstock="true">
      <path
         id="path4107"
         d="M 0.0,0.0 L 5.0,-5.0 L -12.5,0.0 L 5.0,5.0 L 0.0,0.0 z "
         style="fill-rule:evenodd;stroke:#000000;stroke-width:1pt;stroke-opacity:1;fill:#000000;fill-opacity:1"
         transform="scale(0.8) rotate(180) translate(12.5,0)" />
    </marker>
    <linearGradient
       id="linearGradient5624"
       osb:paint="solid">
      <stop
         style="stop-color:#0000ff;stop-opacity:1;"
         offset="0"
         id="stop5626" />
    </linearGradient>
  </defs>
  <sodipodi:namedview
     id="base"
     pagecolor="#ffffff"
     bordercolor="#666666"
     borderopacity="1.0"
     inkscape:pageopacity="0.0"
     inkscape:pageshadow="2"
     inkscape:zoom="2.8"
     inkscape:cx="93.828772"
     inkscape:cy="89.061605"
     inkscape:document-units="px"
     inkscape:current-layer="layer1"
     showgrid="false"
     inkscape:window-width="1920"
     inkscape:window-height="1043"
     inkscape:window-x="0"
     inkscape:window-y="0"
     inkscape:window-maximized="1"
     fit-margin-top="0"
     fit-margin-left="0"
     fit-margin-right="0"
     fit-margin-bottom="0"
     inkscape:snap-grids="true" />
  <metadata
     id="metadata7">
    <rdf:RDF>
      <cc:Work
         rdf:about="">
        <dc:format>image/svg+xml</dc:format>
        <dc:type
           rdf:resource="http://purl.org/dc/dcmitype/StillImage" />
        <dc:title />
      </cc:Work>
    </rdf:RDF>
  </metadata>
  <g
     inkscape:label="Layer 1"
     inkscape:groupmode="layer"
     id="layer1"
     transform="translate(-15.539889,-15.914851)">
    <rect
       style="fill:#e4b884;fill-opacity:1;fill-rule:evenodd;stroke:#702f00;stroke-width:0.651;stroke-linecap:butt;stroke-linejoin:miter;stroke-opacity:1;stroke-miterlimit:4;stroke-dasharray:none"
       id="rect3336"
       width="109.26127"
       height="152.65369"
       x="15.615634"
       y="15.990596"
       ry="7.6832266" />
    <flowRoot
       xml:space="preserve"
       id="flowRoot4786"
       style="fill:black;stroke:none;stroke-opacity:1;stroke-width:1px;stroke-linejoin:miter;stroke-linecap:butt;fill-opacity:1;font-family:sans-serif;font-style:normal;font-weight:normal;font-size:16px;line-height:125%;letter-spacing:0px;word-spacing:0px;"><flowRegion
         id="flowRegion4788"
         style="font-size:16px;"><rect
           id="rect4790"
           width="108.92857"
           height="31.071428"
           x="3.9285715"
           y="116.56361"
           style="font-size:16px;" /></flowRegion><flowPara
         id="flowPara4792" /></flowRoot>    <g
       id="g7184"
       transform="matrix(0.07914751,0,0,0.07914751,44.204233,126.46348)">
      <path
         sodipodi:nodetypes="sssss"
         inkscape:connector-curvature="0"
         id="path9708"
         d="m 362.61073,162.35672 c 0,56.74808 -83.4418,69.60582 -189.87711,69.60582 -106.435291,0 -195.5592,-12.85774 -195.559214,-69.60582 1.4e-5,-56.74805 22.832659,-135.897066 195.559214,-135.897066 178.40867,0 189.87711,79.149016 189.87711,135.897066 z"
         style="opacity:1;fill:#674b08;fill-opacity:1;stroke:#231802;stroke-width:5.63031483;stroke-linecap:round;stroke-miterlimit:4;stroke-dasharray:none;stroke-opacity:1" />
      <path
         sodipodi:nodetypes="cc"
         inkscape:connector-curvature="0"
         id="path9719"
         d="m 64.773569,120.21444 c 1.42053,-33.145632 11.36422,-52.559518 26.99001,-75.287955"
         style="fill:none;fill-rule:evenodd;stroke:#231802;stroke-width:22.90748024;stroke-linecap:round;stroke-linejoin:miter;stroke-miterlimit:4;stroke-dasharray:none;stroke-opacity:1" />
      <path
         sodipodi:nodetypes="cc"
         inkscape:connector-curvature="0"
         id="path9719-9"
         d="m 145.33276,110.42055 c 1.42055,-33.14562 8.52322,-52.085979 27.93706,-72.920377"
         style="fill:none;fill-rule:evenodd;stroke:#231802;stroke-width:22.90748024;stroke-linecap:round;stroke-linejoin:miter;stroke-miterlimit:4;stroke-dasharray:none;stroke-opacity:1" />
      <path
         sodipodi:nodetypes="cc"
         inkscape:connector-curvature="0"
         id="path9719-1"
         d="m 229.61745,118.47017 c 1.42051,-33.145626 11.3642,-52.559512 30.77805,-73.39391"
         style="fill:none;fill-rule:evenodd;stroke:#231802;stroke-width:22.90748024;stroke-linecap:round;stroke-linejoin:miter;stroke-miterlimit:4;stroke-dasharray:none;stroke-opacity:1" />
    </g>
    <path
       sodipodi:type="spiral"
       style="fill:none;fill-rule:evenodd;stroke:#000000;stroke-width:0.9375;stroke-linecap:butt;stroke-linejoin:miter;stroke-miterlimit:0.40000001;stroke-dasharray:none;stroke-opacity:1;marker-end:url(#Arrow1Mend)"
       id="path7186"
       sodipodi:cx="96.566673"
       sodipodi:cy="138.25128"
       sodipodi:expansion="1"
       sodipodi:revolution="1.8210731"
       sodipodi:radius="12.102883"
       sodipodi:argument="-18.135466"
       sodipodi:t0="0.50781173"
       d="m 102.53451,139.7203 c -0.27749,3.90608 -4.088151,6.51337 -7.833991,6.11217 -4.783635,-0.51236 -7.933871,-5.21714 -7.328376,-9.84448 0.740785,-5.66126 6.346906,-9.35796 11.854954,-8.54458 3.577123,0.52823 6.720603,2.81686 8.438703,5.98199" />
    <g
       id="g4100"
       transform="matrix(0.27409317,0,0,0.27409317,42.9907,77.125621)">
      <path
         inkscape:connector-curvature="0"
         id="path7896"
         d="m 191.49518,100.3924 a 2.2207328,1.4361405 59.385149 0 0 -1.61786,-1.347376 c 0,0 -37.11121,-8.470346 -61.05551,0.880689 C 105.18042,109.15844 60.338038,135.5459 60.338038,135.5459 a 2.2207328,1.4361405 59.385149 1 0 2.25838,3.82217 c 0,0 44.960952,-26.4038 68.215362,-35.4854 22.95149,-8.963331 59.70984,-0.81008 59.70984,-0.81008 a 2.2207328,1.4361405 59.385149 0 0 0.97363,-2.68022 z"
         style="color:#000000;font-style:normal;font-variant:normal;font-weight:normal;font-stretch:normal;font-size:medium;line-height:normal;font-family:sans-serif;font-variant-ligatures:normal;font-variant-position:normal;font-variant-caps:normal;font-variant-numeric:normal;font-variant-alternates:normal;font-feature-settings:normal;text-indent:0;text-align:start;text-decoration:none;text-decoration-line:none;text-decoration-style:solid;text-decoration-color:#000000;letter-spacing:normal;word-spacing:normal;text-transform:none;writing-mode:lr-tb;direction:ltr;text-orientation:mixed;dominant-baseline:auto;baseline-shift:baseline;text-anchor:start;white-space:normal;shape-padding:0;clip-rule:nonzero;display:inline;overflow:visible;visibility:visible;opacity:1;isolation:auto;mix-blend-mode:normal;color-interpolation:sRGB;color-interpolation-filters:linearRGB;solid-color:#000000;solid-opacity:1;vector-effect:none;fill:#e2c419;fill-opacity:1;fill-rule:evenodd;stroke:#9a8511;stroke-width:0.56841409;stroke-linecap:round;stroke-linejoin:miter;stroke-miterlimit:4;stroke-dasharray:none;stroke-dashoffset:0;stroke-opacity:1;color-rendering:auto;image-rendering:auto;shape-rendering:auto;text-rendering:auto;enable-background:accumulate" />
      <path
         inkscape:connector-curvature="0"
         id="path7894"
         d="m 190.49188,87.505111 a 2.2207328,1.4361405 59.385149 0 0 -1.94358,-1.353367 c 0,0 -41.87208,1.668295 -69.36884,14.639036 -27.257641,12.85795 -59.789452,32.11601 -59.789452,32.11601 a 2.2207328,1.4361405 59.385149 1 0 2.261222,3.8206 c 0,0 32.51064,-19.23655 59.63567,-32.03196 26.88598,-12.68263 68.58809,-14.449819 68.58809,-14.449819 a 2.2207328,1.4361405 59.385149 0 0 0.61689,-2.7405 z"
         style="color:#000000;font-style:normal;font-variant:normal;font-weight:normal;font-stretch:normal;font-size:medium;line-height:normal;font-family:sans-serif;font-variant-ligatures:normal;font-variant-position:normal;font-variant-caps:normal;font-variant-numeric:normal;font-variant-alternates:normal;font-feature-settings:normal;text-indent:0;text-align:start;text-decoration:none;text-decoration-line:none;text-decoration-style:solid;text-decoration-color:#000000;letter-spacing:normal;word-spacing:normal;text-transform:none;writing-mode:lr-tb;direction:ltr;text-orientation:mixed;dominant-baseline:auto;baseline-shift:baseline;text-anchor:start;white-space:normal;shape-padding:0;clip-rule:nonzero;display:inline;overflow:visible;visibility:visible;opacity:1;isolation:auto;mix-blend-mode:normal;color-interpolation:sRGB;color-interpolation-filters:linearRGB;solid-color:#000000;solid-opacity:1;vector-effect:none;fill:#e2c419;fill-opacity:1;fill-rule:evenodd;stroke:#9a8511;stroke-width:0.56841409;stroke-linecap:round;stroke-linejoin:miter;stroke-miterlimit:4;stroke-dasharray:none;stroke-dashoffset:0;stroke-opacity:1;color-rendering:auto;image-rendering:auto;shape-rendering:auto;text-rendering:auto;enable-background:accumulate" />
      <path
         inkscape:connector-curvature="0"
         id="path7892"
         d="m 185.58976,74.765965 a 2.2207328,1.4361405 59.385149 0 0 -2.22934,-1.309996 c 0,0 -47.88654,15.588602 -72.71788,28.747171 -24.679025,13.07788 -51.820502,28.45031 -51.820502,28.45031 a 2.2219638,1.4369366 59.385149 1 0 2.231355,3.84286 c 0,0 27.128526,-15.36477 51.773187,-28.42445 24.49234,-12.978919 72.42176,-28.626907 72.42176,-28.626907 a 2.2207328,1.4361405 59.385149 0 0 0.34144,-2.678988 z"
         style="color:#000000;font-style:normal;font-variant:normal;font-weight:normal;font-stretch:normal;font-size:medium;line-height:normal;font-family:sans-serif;font-variant-ligatures:normal;font-variant-position:normal;font-variant-caps:normal;font-variant-numeric:normal;font-variant-alternates:normal;font-feature-settings:normal;text-indent:0;text-align:start;text-decoration:none;text-decoration-line:none;text-decoration-style:solid;text-decoration-color:#000000;letter-spacing:normal;word-spacing:normal;text-transform:none;writing-mode:lr-tb;direction:ltr;text-orientation:mixed;dominant-baseline:auto;baseline-shift:baseline;text-anchor:start;white-space:normal;shape-padding:0;clip-rule:nonzero;display:inline;overflow:visible;visibility:visible;opacity:1;isolation:auto;mix-blend-mode:normal;color-interpolation:sRGB;color-interpolation-filters:linearRGB;solid-color:#000000;solid-opacity:1;vector-effect:none;fill:#e2c419;fill-opacity:1;fill-rule:evenodd;stroke:#9a8511;stroke-width:0.56841409;stroke-linecap:round;stroke-linejoin:miter;stroke-miterlimit:4;stroke-dasharray:none;stroke-dashoffset:0;stroke-opacity:1;color-rendering:auto;image-rendering:auto;shape-rendering:auto;text-rendering:auto;enable-background:accumulate" />
      <path
         inkscape:connector-curvature="0"
         id="path7882"
         d="m 154.19099,37.788082 a 2.2207328,1.4361405 59.385149 0 0 -2.8526,-0.364145 c 0,0 -1.44806,6.607311 -6.79487,16.044271 -5.34678,9.436996 -14.56453,21.584021 -30.03227,32.313296 C 83.419551,107.34845 52.888982,119.45692 52.888982,119.45692 a 2.2207328,1.4361405 59.385149 1 0 1.996169,3.94763 c 0,0 30.71003,-12.16488 62.003149,-33.871357 15.72463,-10.907468 25.14257,-23.300221 30.63376,-32.992052 5.4912,-9.691865 7.08356,-16.801405 7.08356,-16.801405 a 2.2207328,1.4361405 59.385149 0 0 -0.41453,-1.951441 z"
         style="color:#000000;font-style:normal;font-variant:normal;font-weight:normal;font-stretch:normal;font-size:medium;line-height:normal;font-family:sans-serif;font-variant-ligatures:normal;font-variant-position:normal;font-variant-caps:normal;font-variant-numeric:normal;font-variant-alternates:normal;font-feature-settings:normal;text-indent:0;text-align:start;text-decoration:none;text-decoration-line:none;text-decoration-style:solid;text-decoration-color:#000000;letter-spacing:normal;word-spacing:normal;text-transform:none;writing-mode:lr-tb;direction:ltr;text-orientation:mixed;dominant-baseline:auto;baseline-shift:baseline;text-anchor:start;white-space:normal;shape-padding:0;clip-rule:nonzero;display:inline;overflow:visible;visibility:visible;opacity:1;isolation:auto;mix-blend-mode:normal;color-interpolation:sRGB;color-interpolation-filters:linearRGB;solid-color:#000000;solid-opacity:1;vector-effect:none;fill:#e2c419;fill-opacity:1;fill-rule:evenodd;stroke:#9a8511;stroke-width:0.56841409;stroke-linecap:round;stroke-linejoin:miter;stroke-miterlimit:4;stroke-dasharray:none;stroke-dashoffset:0;stroke-opacity:1;color-rendering:auto;image-rendering:auto;shape-rendering:auto;text-rendering:auto;enable-background:accumulate" />
      <path
         inkscape:connector-curvature="0"
         id="path7886"
         d="m 164.36755,43.728649 a 2.2207328,1.4361405 59.385149 0 0 -2.68959,-0.981354 c 0,0 -25.46419,32.922036 -51.4833,49.552761 C 84.012336,109.03506 54.659187,122.64363 54.659187,122.64363 a 2.2213549,1.4365428 59.385149 1 0 2.095618,3.9111 c 0,0 29.429154,-13.63656 55.757305,-30.464789 26.49134,-16.932543 51.9713,-50.00928 51.9713,-50.00928 a 2.2207328,1.4361405 59.385149 0 0 -0.11583,-2.352012 z"
         style="color:#000000;font-style:normal;font-variant:normal;font-weight:normal;font-stretch:normal;font-size:medium;line-height:normal;font-family:sans-serif;font-variant-ligatures:normal;font-variant-position:normal;font-variant-caps:normal;font-variant-numeric:normal;font-variant-alternates:normal;font-feature-settings:normal;text-indent:0;text-align:start;text-decoration:none;text-decoration-line:none;text-decoration-style:solid;text-decoration-color:#000000;letter-spacing:normal;word-spacing:normal;text-transform:none;writing-mode:lr-tb;direction:ltr;text-orientation:mixed;dominant-baseline:auto;baseline-shift:baseline;text-anchor:start;white-space:normal;shape-padding:0;clip-rule:nonzero;display:inline;overflow:visible;visibility:visible;opacity:1;isolation:auto;mix-blend-mode:normal;color-interpolation:sRGB;color-interpolation-filters:linearRGB;solid-color:#000000;solid-opacity:1;vector-effect:none;fill:#e2c419;fill-opacity:1;fill-rule:evenodd;stroke:#9a8511;stroke-width:0.56841409;stroke-linecap:round;stroke-linejoin:miter;stroke-miterlimit:4;stroke-dasharray:none;stroke-dashoffset:0;stroke-opacity:1;color-rendering:auto;image-rendering:auto;shape-rendering:auto;text-rendering:auto;enable-background:accumulate" />
      <path
         inkscape:connector-curvature="0"
         id="path7888"
         d="m 171.33207,54.041303 a 2.2207328,1.4361405 59.385149 0 0 -2.48332,-1.082197 c 0,0 -40.14027,32.075079 -61.0731,44.318233 C 86.717697,109.59366 56.419094,125.33764 56.419094,125.33764 a 2.2207328,1.4361405 59.385149 1 0 2.169773,3.8706 c 0,0 30.306706,-15.74554 51.439333,-28.10555 21.25774,-12.433178 61.29672,-44.47006 61.29672,-44.47006 a 2.2207328,1.4361405 59.385149 0 0 0.007,-2.591327 z"
         style="color:#000000;font-style:normal;font-variant:normal;font-weight:normal;font-stretch:normal;font-size:medium;line-height:normal;font-family:sans-serif;font-variant-ligatures:normal;font-variant-position:normal;font-variant-caps:normal;font-variant-numeric:normal;font-variant-alternates:normal;font-feature-settings:normal;text-indent:0;text-align:start;text-decoration:none;text-decoration-line:none;text-decoration-style:solid;text-decoration-color:#000000;letter-spacing:normal;word-spacing:normal;text-transform:none;writing-mode:lr-tb;direction:ltr;text-orientation:mixed;dominant-baseline:auto;baseline-shift:baseline;text-anchor:start;white-space:normal;shape-padding:0;clip-rule:nonzero;display:inline;overflow:visible;visibility:visible;opacity:1;isolation:auto;mix-blend-mode:normal;color-interpolation:sRGB;color-interpolation-filters:linearRGB;solid-color:#000000;solid-opacity:1;vector-effect:none;fill:#e2c419;fill-opacity:1;fill-rule:evenodd;stroke:#9a8511;stroke-width:0.56841409;stroke-linecap:round;stroke-linejoin:miter;stroke-miterlimit:4;stroke-dasharray:none;stroke-dashoffset:0;stroke-opacity:1;color-rendering:auto;image-rendering:auto;shape-rendering:auto;text-rendering:auto;enable-background:accumulate" />
      <path
         inkscape:connector-curvature="0"
         id="path7890"
         d="m 178.97271,63.670027 a 2.2207328,1.4361405 59.385149 0 0 -2.36723,-1.157492 c 0,0 -55.27413,31.812981 -67.37159,37.623645 -12.418094,5.96467 -51.048989,27.89225 -51.048989,27.89225 a 2.2207328,1.4361405 59.385149 1 0 2.231611,3.83679 c 0,0 38.768662,-21.98632 50.936598,-27.83083 12.48853,-5.998535 67.49578,-37.691504 67.49578,-37.691504 a 2.2207328,1.4361405 59.385149 0 0 0.1237,-2.672788 z"
         style="color:#000000;font-style:normal;font-variant:normal;font-weight:normal;font-stretch:normal;font-size:medium;line-height:normal;font-family:sans-serif;font-variant-ligatures:normal;font-variant-position:normal;font-variant-caps:normal;font-variant-numeric:normal;font-variant-alternates:normal;font-feature-settings:normal;text-indent:0;text-align:start;text-decoration:none;text-decoration-line:none;text-decoration-style:solid;text-decoration-color:#000000;letter-spacing:normal;word-spacing:normal;text-transform:none;writing-mode:lr-tb;direction:ltr;text-orientation:mixed;dominant-baseline:auto;baseline-shift:baseline;text-anchor:start;white-space:normal;shape-padding:0;clip-rule:nonzero;display:inline;overflow:visible;visibility:visible;opacity:1;isolation:auto;mix-blend-mode:normal;color-interpolation:sRGB;color-interpolation-filters:linearRGB;solid-color:#000000;solid-opacity:1;vector-effect:none;fill:#e2c419;fill-opacity:1;fill-rule:evenodd;stroke:#9a8511;stroke-width:0.56841409;stroke-linecap:round;stroke-linejoin:miter;stroke-miterlimit:4;stroke-dasharray:none;stroke-dashoffset:0;stroke-opacity:1;color-rendering:auto;image-rendering:auto;shape-rendering:auto;text-rendering:auto;enable-background:accumulate" />
      <path
         sodipodi:nodetypes="cccsscsc"
         inkscape:connector-curvature="0"
         id="path7914"
         d="m 100.14898,98.881323 c 0,0 9.096,15.558627 8.10334,15.957427 -0.99267,0.3988 -11.269339,-18.534262 -12.476615,-18.018179 -1.207304,0.516083 9.963675,19.534749 9.105155,20.003849 -0.85849,0.46906 -11.582359,-19.081029 -12.583952,-18.533766 -1.001591,0.547228 10.053172,20.347196 9.185712,20.964716 -0.86746,0.61753 -12.253168,-19.432272 -12.825441,-19.11961 -0.572346,0.31287 8.88148,17.97272 8.88148,17.97272"
         style="fill:none;fill-rule:evenodd;stroke:#4a3a0f;stroke-width:2.27480316;stroke-linecap:butt;stroke-linejoin:miter;stroke-miterlimit:4;stroke-dasharray:none;stroke-opacity:1" />
    </g>
  </g>
</svg>
