<?xml version="1.0" encoding="UTF-8" standalone="no"?>
<!-- Created with Inkscape (http://www.inkscape.org/) -->

<svg
   xmlns:osb="http://www.openswatchbook.org/uri/2009/osb"
   xmlns:dc="http://purl.org/dc/elements/1.1/"
   xmlns:cc="http://creativecommons.org/ns#"
   xmlns:rdf="http://www.w3.org/1999/02/22-rdf-syntax-ns#"
   xmlns:svg="http://www.w3.org/2000/svg"
   xmlns="http://www.w3.org/2000/svg"
   xmlns:sodipodi="http://sodipodi.sourceforge.net/DTD/sodipodi-0.dtd"
   xmlns:inkscape="http://www.inkscape.org/namespaces/inkscape"
   width="30.878712mm"
   height="43.125015mm"
   viewBox="0 0 109.41276 152.80517"
   id="svg2"
   version="1.1"
   inkscape:version="0.92.1 r"
   sodipodi:docname="make_start_player.svg">
  <defs
     id="defs4">
    <linearGradient
       id="linearGradient5624"
       osb:paint="solid">
      <stop
         style="stop-color:#0000ff;stop-opacity:1;"
         offset="0"
         id="stop5626" />
    </linearGradient>
  </defs>
  <sodipodi:namedview
     id="base"
     pagecolor="#ffffff"
     bordercolor="#666666"
     borderopacity="1.0"
     inkscape:pageopacity="0.0"
     inkscape:pageshadow="2"
     inkscape:zoom="2.8"
     inkscape:cx="-179.78813"
     inkscape:cy="56.209964"
     inkscape:document-units="px"
     inkscape:current-layer="layer1"
     showgrid="false"
     inkscape:window-width="1920"
     inkscape:window-height="1043"
     inkscape:window-x="1920"
     inkscape:window-y="0"
     inkscape:window-maximized="1"
     fit-margin-top="0"
     fit-margin-left="0"
     fit-margin-right="0"
     fit-margin-bottom="0"
     inkscape:snap-grids="true" />
  <metadata
     id="metadata7">
    <rdf:RDF>
      <cc:Work
         rdf:about="">
        <dc:format>image/svg+xml</dc:format>
        <dc:type
           rdf:resource="http://purl.org/dc/dcmitype/StillImage" />
        <dc:title />
      </cc:Work>
    </rdf:RDF>
  </metadata>
  <g
     inkscape:label="Layer 1"
     inkscape:groupmode="layer"
     id="layer1"
     transform="translate(-15.539889,-15.914851)">
    <rect
       style="fill:#e4b884;fill-opacity:1;fill-rule:evenodd;stroke:#702f00;stroke-width:0.651;stroke-linecap:butt;stroke-linejoin:miter;stroke-opacity:1;stroke-miterlimit:4;stroke-dasharray:none"
       id="rect3336"
       width="109.26127"
       height="152.65369"
       x="15.615634"
       y="15.990596"
       ry="7.6832266" />
    <flowRoot
       xml:space="preserve"
       id="flowRoot4786"
       style="fill:black;stroke:none;stroke-opacity:1;stroke-width:1px;stroke-linejoin:miter;stroke-linecap:butt;fill-opacity:1;font-family:sans-serif;font-style:normal;font-weight:normal;font-size:16px;line-height:125%;letter-spacing:0px;word-spacing:0px;"><flowRegion
         id="flowRegion4788"
         style="font-size:16px;"><rect
           id="rect4790"
           width="108.92857"
           height="31.071428"
           x="3.9285715"
           y="116.56361"
           style="font-size:16px;" /></flowRegion><flowPara
         id="flowPara4792" /></flowRoot>    <g
       aria-label="Start Player"
       transform="matrix(0.9375,0,0,0.9375,15.539889,15.914851)"
       style="font-style:normal;font-weight:normal;font-size:14.66666698px;line-height:125%;font-family:sans-serif;letter-spacing:0px;word-spacing:0px;fill:#000000;fill-opacity:1;stroke:none;stroke-width:1px;stroke-linecap:butt;stroke-linejoin:miter;stroke-opacity:1"
       id="flowRoot4821">
      <path
         d="m 12.491537,115.27018 v 1.41081 q -0.823568,-0.39388 -1.554037,-0.58724 -0.730469,-0.19336 -1.4108072,-0.19336 -1.1816406,0 -1.8261719,0.45833 -0.6373698,0.45834 -0.6373698,1.30339 0,0.70898 0.422526,1.07422 0.4296876,0.35807 1.6184897,0.58008 l 0.8736979,0.17903 q 1.6184893,0.30795 2.3847653,1.08854 0.773438,0.77344 0.773438,2.07683 0,1.55403 -1.045573,2.35612 -1.038412,0.80208 -3.0507814,0.80208 -0.7591146,0 -1.6184896,-0.17187 -0.8522135,-0.17188 -1.7688802,-0.50847 v -1.48958 q 0.8808594,0.49414 1.7259115,0.74479 0.8450521,0.25065 1.6614583,0.25065 1.2389324,0 1.9121094,-0.48698 0.673177,-0.48698 0.673177,-1.38932 0,-0.78776 -0.486979,-1.23177 -0.479818,-0.44401 -1.5826824,-0.66602 L 8.6744793,120.69857 Q 7.0559896,120.3763 6.3326823,119.6888 5.609375,119.0013 5.609375,117.77669 q 0,-1.41797 0.9954428,-2.23437 1.0026041,-0.81641 2.7571615,-0.81641 0.7519527,0 1.5325517,0.13607 0.780599,0.13607 1.597006,0.4082 z"
         style=""
         id="path7822" />
      <path
         d="m 16.638022,115.31315 v 2.27734 h 2.714192 v 1.02409 h -2.714192 v 4.35417 q 0,0.98112 0.264973,1.26042 0.272136,0.27929 1.095704,0.27929 h 1.353515 v 1.10287 h -1.353515 q -1.525391,0 -2.105469,-0.56576 -0.580078,-0.57291 -0.580078,-2.07682 v -4.35417 h -0.966797 v -1.02409 h 0.966797 v -2.27734 z"
         style=""
         id="path7824" />
      <path
         d="m 24.737631,121.57943 q -1.597005,0 -2.212891,0.36523 -0.615885,0.36524 -0.615885,1.2461 0,0.70182 0.458333,1.11718 0.465495,0.40821 1.260417,0.40821 1.095703,0 1.754557,-0.77344 0.666016,-0.7806 0.666016,-2.06966 v -0.29362 z m 2.628255,-0.54427 v 4.57617 h -1.317708 v -1.21745 q -0.451172,0.73047 -1.124349,1.08138 -0.673177,0.34375 -1.647136,0.34375 -1.23177,0 -1.962239,-0.6875 -0.723308,-0.69466 -0.723308,-1.85482 0,-1.35351 0.902344,-2.04101 0.909505,-0.6875 2.707032,-0.6875 h 1.847656 v -0.12891 q 0,-0.9095 -0.601563,-1.40364 -0.594401,-0.50131 -1.675781,-0.50131 -0.6875,0 -1.339193,0.16472 -0.651692,0.16471 -1.253255,0.49414 v -1.21745 q 0.723307,-0.2793 1.403646,-0.41537 0.680339,-0.14322 1.32487,-0.14322 1.740234,0 2.599609,0.90234 0.859375,0.90234 0.859375,2.73568 z"
         style=""
         id="path7826" />
      <path
         d="m 34.735026,118.82227 q -0.222005,-0.12891 -0.486979,-0.1862 -0.257813,-0.0645 -0.572917,-0.0645 -1.117187,0 -1.71875,0.73047 -0.594401,0.72331 -0.594401,2.08399 v 4.22526 h -1.32487 v -8.02084 h 1.32487 v 1.2461 q 0.415365,-0.73047 1.08138,-1.08138 0.666016,-0.35807 1.61849,-0.35807 0.136068,0 0.300781,0.0215 0.164714,0.0143 0.365235,0.0501 z"
         style=""
         id="path7828" />
      <path
         d="m 37.434897,115.31315 v 2.27734 h 2.714192 v 1.02409 h -2.714192 v 4.35417 q 0,0.98112 0.264973,1.26042 0.272136,0.27929 1.095704,0.27929 h 1.353515 v 1.10287 h -1.353515 q -1.525391,0 -2.105469,-0.56576 -0.580078,-0.57291 -0.580078,-2.07682 v -4.35417 H 35.14323 v -1.02409 h 0.966797 v -2.27734 z"
         style=""
         id="path7830" />
      <path
         d="m 48.062501,116.10807 v 4.01758 h 1.819011 q 1.009765,0 1.561198,-0.52279 0.551432,-0.52278 0.551432,-1.48958 0,-0.95963 -0.551432,-1.48242 -0.551433,-0.52279 -1.561198,-0.52279 z m -1.446614,-1.1888 h 3.265625 q 1.797526,0 2.714193,0.81641 0.923828,0.80924 0.923828,2.3776 0,1.58268 -0.923828,2.39193 -0.916667,0.80924 -2.714193,0.80924 h -1.819011 v 4.29688 h -1.446614 z"
         style=""
         id="path7832" />
      <path
         d="m 55.410158,114.4681 h 1.317708 v 11.14323 h -1.317708 z"
         style=""
         id="path7834" />
      <path
         d="m 63.123047,121.57943 q -1.597005,0 -2.212891,0.36523 -0.615885,0.36524 -0.615885,1.2461 0,0.70182 0.458333,1.11718 0.465495,0.40821 1.260417,0.40821 1.095703,0 1.754557,-0.77344 0.666016,-0.7806 0.666016,-2.06966 v -0.29362 z m 2.628255,-0.54427 v 4.57617 h -1.317708 v -1.21745 q -0.451172,0.73047 -1.124349,1.08138 -0.673177,0.34375 -1.647136,0.34375 -1.23177,0 -1.962239,-0.6875 -0.723307,-0.69466 -0.723307,-1.85482 0,-1.35351 0.902343,-2.04101 0.909506,-0.6875 2.707032,-0.6875 h 1.847656 v -0.12891 q 0,-0.9095 -0.601563,-1.40364 -0.594401,-0.50131 -1.675781,-0.50131 -0.6875,0 -1.339193,0.16472 -0.651692,0.16471 -1.253255,0.49414 v -1.21745 q 0.723307,-0.2793 1.403646,-0.41537 0.680339,-0.14322 1.32487,-0.14322 1.740234,0 2.599609,0.90234 0.859375,0.90234 0.859375,2.73568 z"
         style=""
         id="path7836" />
      <path
         d="m 71.809897,126.35612 q -0.558594,1.43229 -1.088541,1.86914 -0.529948,0.43685 -1.417969,0.43685 h -1.052735 v -1.10286 h 0.773438 q 0.544271,0 0.845052,-0.25782 0.300781,-0.25781 0.666016,-1.21745 l 0.236328,-0.60156 -3.244141,-7.89193 h 1.396484 l 2.506511,6.27344 2.50651,-6.27344 h 1.396485 z"
         style=""
         id="path7838" />
      <path
         d="m 84.013026,121.27148 v 0.64454 h -6.058594 q 0.08594,1.36067 0.816406,2.07682 0.737631,0.70898 2.048178,0.70898 0.759114,0 1.468099,-0.18619 0.716145,-0.1862 1.417968,-0.5586 v 1.2461 q -0.708984,0.30078 -1.453776,0.45833 -0.744791,0.15755 -1.511067,0.15755 -1.919271,0 -3.04362,-1.11719 -1.117188,-1.11718 -1.117188,-3.02213 0,-1.9694 1.059896,-3.1224 1.067057,-1.16015 2.871745,-1.16015 1.61849,0 2.556641,1.04557 0.945312,1.03841 0.945312,2.82877 z m -1.317708,-0.38671 q -0.01432,-1.08138 -0.608724,-1.72592 -0.58724,-0.64453 -1.561198,-0.64453 -1.102865,0 -1.76888,0.62305 -0.658855,0.62305 -0.759115,1.75456 z"
         style=""
         id="path7840" />
      <path
         d="m 90.823573,118.82227 q -0.222005,-0.12891 -0.486979,-0.1862 -0.257813,-0.0645 -0.572917,-0.0645 -1.117187,0 -1.71875,0.73047 -0.594401,0.72331 -0.594401,2.08399 v 4.22526 h -1.32487 v -8.02084 h 1.32487 v 1.2461 q 0.415365,-0.73047 1.08138,-1.08138 0.666016,-0.35807 1.61849,-0.35807 0.136068,0 0.300781,0.0215 0.164714,0.0143 0.365234,0.0501 z"
         style=""
         id="path7842" />
    </g>
  </g>
</svg>
