<?xml version="1.0" encoding="UTF-8" standalone="no"?>
<!-- Created with Inkscape (http://www.inkscape.org/) -->

<svg
   xmlns:dc="http://purl.org/dc/elements/1.1/"
   xmlns:cc="http://creativecommons.org/ns#"
   xmlns:rdf="http://www.w3.org/1999/02/22-rdf-syntax-ns#"
   xmlns:svg="http://www.w3.org/2000/svg"
   xmlns="http://www.w3.org/2000/svg"
   xmlns:sodipodi="http://sodipodi.sourceforge.net/DTD/sodipodi-0.dtd"
   xmlns:inkscape="http://www.inkscape.org/namespaces/inkscape"
   width="71mm"
   height="71mm"
   viewBox="0 0 251.5748 251.5748"
   id="svg2"
   version="1.1"
   inkscape:version="0.91 r13725"
   sodipodi:docname="passage.svg">
  <defs
     id="defs4" />
  <sodipodi:namedview
     id="base"
     pagecolor="#ffffff"
     bordercolor="#666666"
     borderopacity="1.0"
     inkscape:pageopacity="0.0"
     inkscape:pageshadow="2"
     inkscape:zoom="2.8"
     inkscape:cx="64.890937"
     inkscape:cy="112.31654"
     inkscape:document-units="px"
     inkscape:current-layer="layer1"
     showgrid="false"
     inkscape:window-width="1920"
     inkscape:window-height="1043"
     inkscape:window-x="1920"
     inkscape:window-y="0"
     inkscape:window-maximized="1" />
  <metadata
     id="metadata7">
    <rdf:RDF>
      <cc:Work
         rdf:about="">
        <dc:format>image/svg+xml</dc:format>
        <dc:type
           rdf:resource="http://purl.org/dc/dcmitype/StillImage" />
        <dc:title></dc:title>
      </cc:Work>
    </rdf:RDF>
  </metadata>
  <g
     inkscape:label="Layer 1"
     inkscape:groupmode="layer"
     id="layer1"
     transform="translate(0,-800.7874)">
    <rect
       style="opacity:1;fill:#666666;fill-opacity:1;stroke:none;stroke-width:1;stroke-linecap:round;stroke-miterlimit:4;stroke-dasharray:none;stroke-opacity:1"
       id="rect4136"
       width="251.5748"
       height="251.5748"
       x="0"
       y="800.78741" />
    <path
       style="fill:#838383;fill-rule:evenodd;stroke:none;stroke-width:1px;stroke-linecap:butt;stroke-linejoin:miter;stroke-opacity:1;fill-opacity:1"
       d="m 114.64286,807.3622 c 3.92857,-1.07142 9.64285,-1.07142 12.14285,1.07143 2.5,2.14286 5.71429,10.35715 4.64286,12.14286 -1.07143,1.78572 -0.35714,2.14286 0.35714,6.07143 0.71429,3.92857 5.71429,6.78571 4.64286,9.28571 -1.07143,2.5 -1.42857,6.42857 -0.71429,8.92857 0.71429,2.5 1.07143,7.5 1.07143,8.57143 0,1.07143 -0.71428,1.07143 -1.07143,4.28572 -0.35714,3.21428 -1.78571,5 -0.71428,7.85714 1.07143,2.85714 1.42857,7.5 2.14286,10 0.71428,2.5 2.5,6.78571 1.42857,8.57143 -1.07143,1.78571 -1.42857,7.5 -1.42857,7.5 0,0 2.5,3.92857 3.92857,6.07143 1.42857,2.14285 3.57143,1.78571 6.78571,2.85714 3.21429,1.07143 7.5,0.71429 10.71429,1.07143 3.21428,0.35714 5.35714,-1.78572 7.85714,-2.14286 2.5,-0.35714 8.92857,1.78572 11.07143,2.85714 2.14286,1.07143 3.21428,1.07143 6.42857,1.07143 3.21429,0 3.57143,-0.71428 7.14286,-0.71428 3.57143,0 8.57143,-0.71429 13.92857,-1.42857 5.35714,-0.71429 6.07143,2.5 8.92857,3.21428 2.85714,0.71429 8.21429,1.42857 11.07143,1.42857 2.85714,0 8.57143,-1.42857 10.71428,0.71429 2.14286,2.14286 5,2.14286 5.35715,5.71428 0.35714,3.57143 0.71428,5.71429 0.71428,8.57143 0,2.85715 0.71429,6.07143 0,8.92857 -0.71428,2.85715 -3.92857,6.78572 -1.78571,9.64286 2.14286,2.85714 0,4.64286 0.71428,7.85714 0.71429,3.21429 0.71429,4.64286 -0.35714,8.21429 -1.07143,3.57143 -1.07143,3.92857 -1.42857,7.85714 -0.35714,3.92857 1.78571,7.85715 1.78571,12.14286 0,4.28571 -2.85714,3.92857 -6.42857,5.71429 -3.57143,1.78571 -3.21428,-2.5 -6.42857,-5.71429 -3.21428,-3.21429 -13.21428,-2.85714 -13.21428,-2.85714 0,0 -2.5,-5.35715 -4.28572,-6.78572 -1.78571,-1.42857 3.21429,-7.85714 1.78572,-10.35714 -1.42858,-2.5 -6.42858,-4.64286 -8.92858,-4.64286 -2.5,0 -6.78571,-0.35714 -9.64285,1.42857 -2.85715,1.78572 -3.92857,-0.35714 -7.85715,-1.42857 -3.92857,-1.07143 -1.78571,-5.35714 -5.71428,-7.5 -3.92857,-2.14285 -11.07143,-3.21428 -11.07143,-3.21428 0,0 -6.42857,1.07143 -8.92857,2.85714 -2.5,1.78571 -9.28572,0.35714 -12.85714,1.42857 -3.57143,1.07143 -1.78572,5.71429 -2.14286,10 -0.35714,4.28572 0.35714,7.14286 2.85714,9.28572 2.5,2.14285 3.57143,6.07142 1.78572,8.21428 -1.78572,2.14286 -1.78572,7.85714 -1.42858,11.07143 0.35715,3.21428 0.71429,8.21428 1.78572,10 1.07143,1.78571 1.78571,4.64286 2.5,8.21431 0.71428,3.5714 0.35714,6.7857 0.35714,8.9286 0,2.1428 0.71429,6.0714 -0.35714,7.8571 -1.07143,1.7857 -1.07143,3.9286 -1.07143,8.5714 0,4.6429 0.35714,4.6429 1.42857,7.8572 1.07143,3.2143 -0.71428,5.7143 -2.5,6.4285 -1.78571,0.7143 -11.78571,2.1429 -13.57143,1.0715 -1.78571,-1.0715 -2.85714,-3.2143 -6.07143,-6.7857 -3.21428,-3.5715 -1.78571,-2.1429 -3.92857,-0.7143 -2.14285,1.4285 -3.21428,2.1428 -6.78571,-2.1429 -3.57143,-4.2857 -3.21429,-8.2143 -3.92857,-11.0714 -0.71429,-2.8572 0,-4.6429 1.42857,-7.1429 1.42857,-2.5 6.07143,-2.8571 4.28571,-7.1428 C 120,1002.7194 117.5,1001.2908 117.5,997.3622 c 0,-3.92857 0.35714,-7.85714 0.35714,-10 0,-2.14285 -2.5,-6.07142 -2.5,-6.07142 0,0 -0.71428,-3.92858 -1.78571,-7.14286 -1.07143,-3.21429 0.71428,-2.85714 1.42857,-5 0.71429,-2.14286 1.07143,-7.85714 0.35714,-9.64286 -0.71428,-1.78571 -1.78571,-1.78571 -3.57143,-3.92857 -1.78571,-2.14286 -2.14285,-5.35714 -2.5,-7.85714 -0.35714,-2.5 0.35715,-6.07143 -1.42857,-7.5 -1.78571,-1.42857 -6.78571,-4.64286 -8.214283,-3.92857 -1.428572,0.71428 -5.714286,0.71428 -7.5,2.14285 -1.785715,1.42857 -7.857143,6.07143 -9.642858,3.21429 -1.785714,-2.85714 -3.214285,-4.64286 -5.714285,-3.57143 -2.5,1.07143 -1.428572,1.07143 -5.714286,1.78571 -4.285714,0.71429 -12.5,-1.78571 -15,-1.78571 -2.5,0 -2.142857,0.71429 -5.357143,2.85714 -3.214285,2.14286 -6.428571,2.85715 -8.571428,0.71429 -2.142857,-2.14286 -3.928572,-2.14286 -3.928572,-2.14286 0,0 -5.357142,-2.14286 -7.142857,-0.71428 -1.785714,1.42857 -3.214285,2.85714 -5.357142,3.92857 C 23.571428,943.79078 18.571428,939.8622 15,940.57649 11.428571,941.29078 11.785714,932.71935 9.2857142,933.43363 6.7857142,934.14792 7.5,924.14792 8.9285714,922.71935 10.357143,921.29078 15,914.8622 12.142857,913.79078 c -2.8571428,-1.07143 3.214286,-7.14286 4.642857,-8.92858 1.428572,-1.78571 8.928572,1.42858 11.428572,3.57143 2.5,2.14286 3.928571,5 6.071428,2.85715 2.142857,-2.14286 15.357143,0.71428 10.357143,-2.14286 -5,-2.85714 10.714286,1.07143 13.214286,0.71428 2.499999,-0.35714 10.714285,-1.07142 13.214285,-1.07142 2.5,0 8.571429,-5.35715 4.642857,-6.07143 -3.928571,-0.71429 -0.714285,-6.42857 -0.357143,-7.5 0.357143,-1.07143 2.5,-3.57143 5,-4.28572 2.5,-0.71428 6.428572,-3.21428 6.428572,-6.07143 0,-2.85714 -3.928572,-2.5 -3.928572,-7.14285 0,-4.64286 4.642857,-3.57143 4.285715,-6.07143 -0.357143,-2.5 6.428571,-6.07143 5.357142,-8.92857 -1.071428,-2.85715 -2.142857,-5.35715 -2.142857,-8.57143 0,-3.21429 3.214286,-5.35714 2.142857,-8.92857 -1.071428,-3.57143 -2.5,-3.92857 -1.071428,-7.14286 1.428571,-3.21429 5.357143,-1.07143 6.428571,-5.35714 1.071429,-4.28572 4.642858,-6.42857 0.357143,-8.92857 -4.285714,-2.5 -1.785714,-2.5 -1.428571,-4.28572 0.357143,-1.78571 5.714286,-3.57143 6.785716,-6.78571 1.07143,-3.21429 11.07143,-5.35715 11.07143,-5.35715 z"
       id="path6601"
       inkscape:connector-curvature="0" />
  </g>
</svg>
