<?xml version="1.0" encoding="UTF-8" standalone="no"?>
<!-- Created with Inkscape (http://www.inkscape.org/) -->

<svg
   xmlns:osb="http://www.openswatchbook.org/uri/2009/osb"
   xmlns:dc="http://purl.org/dc/elements/1.1/"
   xmlns:cc="http://creativecommons.org/ns#"
   xmlns:rdf="http://www.w3.org/1999/02/22-rdf-syntax-ns#"
   xmlns:svg="http://www.w3.org/2000/svg"
   xmlns="http://www.w3.org/2000/svg"
   xmlns:sodipodi="http://sodipodi.sourceforge.net/DTD/sodipodi-0.dtd"
   xmlns:inkscape="http://www.inkscape.org/namespaces/inkscape"
   width="30.878712mm"
   height="43.125015mm"
   viewBox="0 0 109.41276 152.80517"
   id="svg2"
   version="1.1"
   inkscape:version="0.92.1 r"
   sodipodi:docname="resource_addition.svg">
  <defs
     id="defs4">
    <linearGradient
       id="linearGradient5624"
       osb:paint="solid">
      <stop
         style="stop-color:#0000ff;stop-opacity:1;"
         offset="0"
         id="stop5626" />
    </linearGradient>
  </defs>
  <sodipodi:namedview
     id="base"
     pagecolor="#ffffff"
     bordercolor="#666666"
     borderopacity="1.0"
     inkscape:pageopacity="0.0"
     inkscape:pageshadow="2"
     inkscape:zoom="2.8"
     inkscape:cx="3.2967877"
     inkscape:cy="90.138535"
     inkscape:document-units="px"
     inkscape:current-layer="layer1"
     showgrid="false"
     inkscape:window-width="1920"
     inkscape:window-height="1043"
     inkscape:window-x="1920"
     inkscape:window-y="0"
     inkscape:window-maximized="1"
     fit-margin-top="0"
     fit-margin-left="0"
     fit-margin-right="0"
     fit-margin-bottom="0"
     inkscape:snap-grids="true" />
  <metadata
     id="metadata7">
    <rdf:RDF>
      <cc:Work
         rdf:about="">
        <dc:format>image/svg+xml</dc:format>
        <dc:type
           rdf:resource="http://purl.org/dc/dcmitype/StillImage" />
        <dc:title />
      </cc:Work>
    </rdf:RDF>
  </metadata>
  <g
     inkscape:label="Layer 1"
     inkscape:groupmode="layer"
     id="layer1"
     transform="translate(-15.539889,-15.914851)">
    <rect
       style="fill:#e4b884;fill-opacity:1;fill-rule:evenodd;stroke:#702f00;stroke-width:0.651;stroke-linecap:butt;stroke-linejoin:miter;stroke-opacity:1;stroke-miterlimit:4;stroke-dasharray:none"
       id="rect3336"
       width="109.26127"
       height="152.65369"
       x="15.615634"
       y="15.990596"
       ry="7.6832266" />
    <g
       aria-label="ResAdd"
       transform="matrix(0.9375,0,0,0.9375,15.539889,15.914851)"
       style="font-style:normal;font-weight:normal;font-size:21.33333397px;line-height:125%;font-family:sans-serif;letter-spacing:0px;word-spacing:0px;fill:#000000;fill-opacity:1;stroke:none;stroke-width:1px;stroke-linecap:butt;stroke-linejoin:miter;stroke-opacity:1"
       id="flowRoot4762">
      <path
         d="m 27.326172,105.64779 q 0.677084,0.22916 1.3125,0.97916 0.645834,0.75 1.291667,2.0625 l 2.135417,4.25 h -2.260417 l -1.989583,-3.98958 q -0.770834,-1.5625 -1.500001,-2.07292 -0.71875,-0.51041 -1.96875,-0.51041 h -2.291666 v 6.57291 H 19.951172 V 97.38737 h 4.75 q 2.666667,0 3.979167,1.114583 1.3125,1.114584 1.3125,3.364587 0,1.46875 -0.6875,2.4375 -0.677083,0.96875 -1.979167,1.34375 z m -5.270833,-6.531253 v 5.520833 h 2.645833 q 1.520833,0 2.291667,-0.69792 0.78125,-0.70833 0.78125,-2.07291 0,-1.36459 -0.78125,-2.052087 -0.770834,-0.697916 -2.291667,-0.697916 z"
         style=""
         id="path5512" />
      <path
         d="m 43.722006,106.62695 v 0.9375 h -8.812501 q 0.125,1.97917 1.1875,3.02084 1.072917,1.03125 2.979167,1.03125 1.104167,0 2.135417,-0.27084 1.041667,-0.27083 2.0625,-0.8125 v 1.8125 q -1.03125,0.4375 -2.114584,0.66667 -1.083333,0.22917 -2.197916,0.22917 -2.791667,0 -4.427084,-1.625 -1.625,-1.625 -1.625,-4.39584 0,-2.86458 1.541667,-4.54166 1.552083,-1.6875 4.177083,-1.6875 2.354167,0 3.718751,1.52083 1.375,1.51042 1.375,4.11458 z m -1.916667,-0.5625 q -0.02083,-1.57291 -0.885417,-2.51041 -0.854167,-0.9375 -2.270833,-0.9375 -1.604167,0 -2.572917,0.90625 -0.958333,0.90625 -1.104167,2.55208 z"
         style=""
         id="path5514" />
      <path
         d="m 54.305339,101.61654 v 1.8125 q -0.8125,-0.41667 -1.6875,-0.625 -0.875,-0.20834 -1.8125,-0.20834 -1.427084,0 -2.145834,0.4375 -0.708333,0.4375 -0.708333,1.3125 0,0.66667 0.510417,1.05209 0.510416,0.375 2.052083,0.71875 l 0.65625,0.14583 q 2.041667,0.4375 2.895833,1.23958 0.864584,0.79167 0.864584,2.21875 0,1.625 -1.291667,2.57292 -1.28125,0.94792 -3.53125,0.94792 -0.9375,0 -1.958333,-0.1875 -1.010417,-0.17709 -2.135417,-0.54167 v -1.97917 q 1.0625,0.55209 2.09375,0.83334 1.03125,0.27083 2.041667,0.27083 1.354166,0 2.083333,-0.45833 0.729167,-0.46875 0.729167,-1.3125 0,-0.78125 -0.53125,-1.19792 -0.520834,-0.41667 -2.302084,-0.80208 l -0.666666,-0.15625 q -1.78125,-0.375 -2.572917,-1.14584 -0.791667,-0.78125 -0.791667,-2.13541 0,-1.64584 1.166667,-2.54167 1.166667,-0.89583 3.3125,-0.89583 1.0625,0 2,0.15625 0.9375,0.15625 1.729167,0.46875 z"
         style=""
         id="path5516" />
      <path
         d="m 63.274089,99.460287 -2.854167,7.739583 h 5.71875 z m -1.1875,-2.072917 h 2.385416 l 5.927084,15.55208 h -2.1875 l -1.416667,-3.98958 h -7.010417 l -1.416666,3.98958 h -2.21875 z"
         style=""
         id="path5518" />
      <path
         d="m 79.878258,103.04362 v -6.3125 h 1.916667 v 16.20833 h -1.916667 v -1.75 q -0.604167,1.04167 -1.53125,1.55209 -0.916667,0.5 -2.208333,0.5 -2.114584,0 -3.447917,-1.6875 -1.322917,-1.6875 -1.322917,-4.4375 0,-2.75 1.322917,-4.4375 1.333333,-1.6875 3.447917,-1.6875 1.291666,0 2.208333,0.51041 0.927083,0.5 1.53125,1.54167 z m -6.53125,4.07292 q 0,2.11458 0.864583,3.32291 0.875,1.19792 2.395834,1.19792 1.520833,0 2.395833,-1.19792 0.875,-1.20833 0.875,-3.32291 0,-2.11459 -0.875,-3.3125 -0.875,-1.20834 -2.395833,-1.20834 -1.520834,0 -2.395834,1.20834 -0.864583,1.19791 -0.864583,3.3125 z"
         style=""
         id="path5520" />
      <path
         d="m 93.419922,103.04362 v -6.3125 h 1.916667 v 16.20833 h -1.916667 v -1.75 q -0.604167,1.04167 -1.53125,1.55209 -0.916667,0.5 -2.208333,0.5 -2.114584,0 -3.447917,-1.6875 -1.322917,-1.6875 -1.322917,-4.4375 0,-2.75 1.322917,-4.4375 1.333333,-1.6875 3.447917,-1.6875 1.291666,0 2.208333,0.51041 0.927083,0.5 1.53125,1.54167 z m -6.53125,4.07292 q 0,2.11458 0.864583,3.32291 0.875,1.19792 2.395834,1.19792 1.520833,0 2.395833,-1.19792 0.875,-1.20833 0.875,-3.32291 0,-2.11459 -0.875,-3.3125 -0.875,-1.20834 -2.395833,-1.20834 -1.520834,0 -2.395834,1.20834 -0.864583,1.19791 -0.864583,3.3125 z"
         style=""
         id="path5522" />
    </g>
  </g>
</svg>
