<?xml version="1.0" encoding="UTF-8" standalone="no"?>
<!-- Created with Inkscape (http://www.inkscape.org/) -->

<svg
   xmlns:osb="http://www.openswatchbook.org/uri/2009/osb"
   xmlns:dc="http://purl.org/dc/elements/1.1/"
   xmlns:cc="http://creativecommons.org/ns#"
   xmlns:rdf="http://www.w3.org/1999/02/22-rdf-syntax-ns#"
   xmlns:svg="http://www.w3.org/2000/svg"
   xmlns="http://www.w3.org/2000/svg"
   xmlns:sodipodi="http://sodipodi.sourceforge.net/DTD/sodipodi-0.dtd"
   xmlns:inkscape="http://www.inkscape.org/namespaces/inkscape"
   width="30.878712mm"
   height="43.125015mm"
   viewBox="0 0 109.41276 152.80517"
   id="svg2"
   version="1.1"
   inkscape:version="0.92.1 r"
   sodipodi:docname="weapon_making.svg">
  <defs
     id="defs4">
    <linearGradient
       id="linearGradient5624"
       osb:paint="solid">
      <stop
         style="stop-color:#0000ff;stop-opacity:1;"
         offset="0"
         id="stop5626" />
    </linearGradient>
  </defs>
  <sodipodi:namedview
     id="base"
     pagecolor="#ffffff"
     bordercolor="#666666"
     borderopacity="1.0"
     inkscape:pageopacity="0.0"
     inkscape:pageshadow="2"
     inkscape:zoom="2.8"
     inkscape:cx="-179.78813"
     inkscape:cy="56.209964"
     inkscape:document-units="px"
     inkscape:current-layer="layer1"
     showgrid="false"
     inkscape:window-width="1920"
     inkscape:window-height="1043"
     inkscape:window-x="1920"
     inkscape:window-y="0"
     inkscape:window-maximized="1"
     fit-margin-top="0"
     fit-margin-left="0"
     fit-margin-right="0"
     fit-margin-bottom="0"
     inkscape:snap-grids="true" />
  <metadata
     id="metadata7">
    <rdf:RDF>
      <cc:Work
         rdf:about="">
        <dc:format>image/svg+xml</dc:format>
        <dc:type
           rdf:resource="http://purl.org/dc/dcmitype/StillImage" />
        <dc:title />
      </cc:Work>
    </rdf:RDF>
  </metadata>
  <g
     inkscape:label="Layer 1"
     inkscape:groupmode="layer"
     id="layer1"
     transform="translate(-15.539889,-15.914851)">
    <rect
       style="fill:#e4b884;fill-opacity:1;fill-rule:evenodd;stroke:#702f00;stroke-width:0.651;stroke-linecap:butt;stroke-linejoin:miter;stroke-opacity:1;stroke-miterlimit:4;stroke-dasharray:none"
       id="rect3336"
       width="109.26127"
       height="152.65369"
       x="15.615634"
       y="15.990596"
       ry="7.6832266" />
    <flowRoot
       xml:space="preserve"
       id="flowRoot4786"
       style="fill:black;stroke:none;stroke-opacity:1;stroke-width:1px;stroke-linejoin:miter;stroke-linecap:butt;fill-opacity:1;font-family:sans-serif;font-style:normal;font-weight:normal;font-size:16px;line-height:125%;letter-spacing:0px;word-spacing:0px;"><flowRegion
         id="flowRegion4788"
         style="font-size:16px;"><rect
           id="rect4790"
           width="108.92857"
           height="31.071428"
           x="3.9285715"
           y="116.56361"
           style="font-size:16px;" /></flowRegion><flowPara
         id="flowPara4792" /></flowRoot>    <g
       aria-label="Weapon Making"
       transform="matrix(0.9375,0,0,0.9375,15.539889,15.914851)"
       style="font-style:normal;font-weight:normal;font-size:12px;line-height:125%;font-family:sans-serif;letter-spacing:0px;word-spacing:0px;fill:#000000;fill-opacity:1;stroke:none;stroke-width:1px;stroke-linecap:butt;stroke-linejoin:miter;stroke-opacity:1"
       id="flowRoot4821">
      <path
         d="m 5.0410156,114.50391 h 1.1953125 l 1.8398438,7.39453 1.8339844,-7.39453 h 1.3300777 l 1.839844,7.39453 1.833985,-7.39453 h 1.201171 l -2.197265,8.74804 h -1.488281 l -1.845704,-7.59375 -1.8632809,7.59375 H 7.2324219 Z"
         style=""
         id="path8978" />
      <path
         d="m 22.542969,119.70117 v 0.52735 h -4.957032 q 0.07031,1.11328 0.667969,1.69921 0.603516,0.58008 1.675781,0.58008 0.621094,0 1.201172,-0.15234 0.585938,-0.15234 1.160157,-0.45703 v 1.01953 q -0.580079,0.24609 -1.189454,0.375 -0.609375,0.12891 -1.236328,0.12891 -1.570312,0 -2.490234,-0.91407 -0.914063,-0.91406 -0.914063,-2.47265 0,-1.61133 0.867188,-2.55469 0.873047,-0.94922 2.349609,-0.94922 1.324219,0 2.091797,0.85547 0.773438,0.84961 0.773438,2.31445 z m -1.078125,-0.3164 q -0.01172,-0.88477 -0.498047,-1.41211 -0.480469,-0.52735 -1.277344,-0.52735 -0.902344,0 -1.447266,0.50977 -0.539062,0.50976 -0.621093,1.43555 z"
         style=""
         id="path8980" />
      <path
         d="m 27.294922,119.95313 q -1.306641,0 -1.810547,0.29882 -0.503906,0.29883 -0.503906,1.01953 0,0.57422 0.375,0.91407 0.380859,0.33398 1.03125,0.33398 0.896484,0 1.435547,-0.63281 0.544921,-0.63867 0.544921,-1.69336 v -0.24023 z m 2.15039,-0.44532 v 3.74414 h -1.078125 v -0.99609 q -0.36914,0.59766 -0.919921,0.88477 -0.550782,0.28125 -1.347657,0.28125 -1.007812,0 -1.605468,-0.5625 -0.591797,-0.56836 -0.591797,-1.51758 0,-1.10742 0.738281,-1.66992 0.744141,-0.5625 2.214844,-0.5625 h 1.511718 v -0.10547 q 0,-0.74414 -0.492187,-1.14844 -0.486328,-0.41016 -1.371094,-0.41016 -0.5625,0 -1.095703,0.13477 -0.533203,0.13476 -1.025391,0.4043 v -0.9961 q 0.591797,-0.22851 1.148438,-0.33984 0.556641,-0.11719 1.083984,-0.11719 1.423828,0 2.126953,0.73828 0.703125,0.73828 0.703125,2.23828 z"
         style=""
         id="path8982" />
      <path
         d="m 32.714844,122.26758 v 3.48047 h -1.083985 v -9.0586 h 1.083985 v 0.9961 q 0.339843,-0.58594 0.855468,-0.86719 0.521485,-0.28711 1.242188,-0.28711 1.195312,0 1.939453,0.94922 0.75,0.94922 0.75,2.49609 0,1.54688 -0.75,2.4961 -0.744141,0.94922 -1.939453,0.94922 -0.720703,0 -1.242188,-0.28125 -0.515625,-0.28711 -0.855468,-0.87305 z m 3.667968,-2.29102 q 0,-1.18945 -0.492187,-1.86328 -0.486328,-0.67969 -1.341797,-0.67969 -0.855469,0 -1.347656,0.67969 -0.486328,0.67383 -0.486328,1.86328 0,1.18946 0.486328,1.86914 0.492187,0.67383 1.347656,0.67383 0.855469,0 1.341797,-0.67383 0.492187,-0.67968 0.492187,-1.86914 z"
         style=""
         id="path8984" />
      <path
         d="m 41.832031,117.44531 q -0.867187,0 -1.371094,0.67969 -0.503906,0.67383 -0.503906,1.85156 0,1.17774 0.498047,1.85742 0.503906,0.67383 1.376953,0.67383 0.861328,0 1.365235,-0.67968 0.503906,-0.67969 0.503906,-1.85157 0,-1.16601 -0.503906,-1.8457 -0.503907,-0.68555 -1.365235,-0.68555 z m 0,-0.91406 q 1.40625,0 2.208985,0.91406 0.802734,0.91407 0.802734,2.53125 0,1.61133 -0.802734,2.53125 -0.802735,0.91407 -2.208985,0.91407 -1.412109,0 -2.214844,-0.91407 -0.796875,-0.91992 -0.796875,-2.53125 0,-1.61718 0.796875,-2.53125 0.802735,-0.91406 2.214844,-0.91406 z"
         style=""
         id="path8986" />
      <path
         d="m 52.080078,119.29102 v 3.96093 h -1.078125 v -3.92578 q 0,-0.93164 -0.363281,-1.39453 -0.363281,-0.46289 -1.089844,-0.46289 -0.873047,0 -1.376953,0.55664 -0.503906,0.55664 -0.503906,1.51758 v 3.70898 h -1.083985 v -6.5625 h 1.083985 v 1.01953 q 0.386718,-0.59179 0.908203,-0.88476 0.527344,-0.29297 1.21289,-0.29297 1.13086,0 1.710938,0.70313 0.580078,0.69726 0.580078,2.05664 z"
         style=""
         id="path8988" />
      <path
         d="m 58.109375,114.50391 h 1.763672 l 2.232422,5.95312 2.24414,-5.95312 h 1.763672 v 8.74804 h -1.154297 v -7.68164 l -2.255859,6 h -1.189453 l -2.25586,-6 v 7.68164 h -1.148437 z"
         style=""
         id="path8990" />
      <path
         d="m 71.404297,119.95313 q -1.306641,0 -1.810547,0.29882 -0.503906,0.29883 -0.503906,1.01953 0,0.57422 0.375,0.91407 0.380859,0.33398 1.03125,0.33398 0.896484,0 1.435547,-0.63281 0.544921,-0.63867 0.544921,-1.69336 v -0.24023 z m 2.15039,-0.44532 v 3.74414 h -1.078125 v -0.99609 q -0.36914,0.59766 -0.919921,0.88477 -0.550782,0.28125 -1.347657,0.28125 -1.007812,0 -1.605468,-0.5625 -0.591797,-0.56836 -0.591797,-1.51758 0,-1.10742 0.738281,-1.66992 0.744141,-0.5625 2.214844,-0.5625 h 1.511718 v -0.10547 q 0,-0.74414 -0.492187,-1.14844 -0.486328,-0.41016 -1.371094,-0.41016 -0.5625,0 -1.095703,0.13477 -0.533203,0.13476 -1.025391,0.4043 v -0.9961 q 0.591797,-0.22851 1.148438,-0.33984 0.556641,-0.11719 1.083984,-0.11719 1.423828,0 2.126953,0.73828 0.703125,0.73828 0.703125,2.23828 z"
         style=""
         id="path8992" />
      <path
         d="m 75.740234,114.13477 h 1.083985 v 5.38476 l 3.216797,-2.83008 h 1.376953 l -3.480469,3.07032 3.626953,3.49218 h -1.40625 l -3.333984,-3.20507 v 3.20507 h -1.083985 z"
         style=""
         id="path8994" />
      <path
         d="m 82.742187,116.68945 h 1.078125 v 6.5625 h -1.078125 z m 0,-2.55468 h 1.078125 V 115.5 h -1.078125 z"
         style=""
         id="path8996" />
      <path
         d="m 91.525391,119.29102 v 3.96093 h -1.078125 v -3.92578 q 0,-0.93164 -0.363282,-1.39453 -0.363281,-0.46289 -1.089843,-0.46289 -0.873047,0 -1.376954,0.55664 -0.503906,0.55664 -0.503906,1.51758 v 3.70898 h -1.083984 v -6.5625 h 1.083984 v 1.01953 q 0.386719,-0.59179 0.908203,-0.88476 0.527344,-0.29297 1.212891,-0.29297 1.130859,0 1.710937,0.70313 0.580079,0.69726 0.580079,2.05664 z"
         style=""
         id="path8998" />
      <path
         d="m 98.005859,119.89453 q 0,-1.17187 -0.486328,-1.8164 -0.480469,-0.64454 -1.353515,-0.64454 -0.867188,0 -1.353516,0.64454 -0.480469,0.64453 -0.480469,1.8164 0,1.16602 0.480469,1.81055 0.486328,0.64453 1.353516,0.64453 0.873046,0 1.353515,-0.64453 0.486328,-0.64453 0.486328,-1.81055 z m 1.078125,2.54297 q 0,1.67578 -0.74414,2.49023 -0.744141,0.82032 -2.279297,0.82032 -0.56836,0 -1.072266,-0.0879 -0.503906,-0.082 -0.978515,-0.25782 v -1.04882 q 0.474609,0.25781 0.9375,0.38086 0.46289,0.12304 0.943359,0.12304 1.060547,0 1.587891,-0.55664 0.527343,-0.55078 0.527343,-1.66992 v -0.5332 q -0.333984,0.58007 -0.855468,0.86718 -0.521485,0.28711 -1.248047,0.28711 -1.207032,0 -1.945313,-0.91992 -0.738281,-0.91992 -0.738281,-2.4375 0,-1.52344 0.738281,-2.44336 0.738281,-0.91992 1.945313,-0.91992 0.726562,0 1.248047,0.28711 0.521484,0.28711 0.855468,0.86719 v -0.9961 h 1.078125 z"
         style=""
         id="path9000" />
    </g>
  </g>
</svg>
