<?xml version="1.0" encoding="UTF-8" standalone="no"?>
<!-- Created with Inkscape (http://www.inkscape.org/) -->

<svg
   xmlns:dc="http://purl.org/dc/elements/1.1/"
   xmlns:cc="http://creativecommons.org/ns#"
   xmlns:rdf="http://www.w3.org/1999/02/22-rdf-syntax-ns#"
   xmlns:svg="http://www.w3.org/2000/svg"
   xmlns="http://www.w3.org/2000/svg"
   xmlns:sodipodi="http://sodipodi.sourceforge.net/DTD/sodipodi-0.dtd"
   xmlns:inkscape="http://www.inkscape.org/namespaces/inkscape"
   width="39.6105mm"
   height="29.239899mm"
   viewBox="0 0 39.6105 29.239899"
   version="1.1"
   id="svg7337"
   inkscape:version="0.92.2 2405546, 2018-03-11"
   sodipodi:docname="wheat.svg">
  <defs
     id="defs7331" />
  <sodipodi:namedview
     id="base"
     pagecolor="#ffffff"
     bordercolor="#666666"
     borderopacity="1.0"
     inkscape:pageopacity="0.0"
     inkscape:pageshadow="2"
     inkscape:zoom="1.4"
     inkscape:cx="-137.55438"
     inkscape:cy="56.674476"
     inkscape:document-units="mm"
     inkscape:current-layer="layer1"
     showgrid="false"
     inkscape:window-width="1920"
     inkscape:window-height="1043"
     inkscape:window-x="0"
     inkscape:window-y="0"
     inkscape:window-maximized="1"
     fit-margin-top="0"
     fit-margin-left="0"
     fit-margin-right="0"
     fit-margin-bottom="0" />
  <metadata
     id="metadata7334">
    <rdf:RDF>
      <cc:Work
         rdf:about="">
        <dc:format>image/svg+xml</dc:format>
        <dc:type
           rdf:resource="http://purl.org/dc/dcmitype/StillImage" />
        <dc:title></dc:title>
      </cc:Work>
    </rdf:RDF>
  </metadata>
  <g
     inkscape:label="Layer 1"
     inkscape:groupmode="layer"
     id="layer1"
     transform="translate(-50.678623,-128.86219)">
    <path
       style="color:#000000;font-style:normal;font-variant:normal;font-weight:normal;font-stretch:normal;font-size:medium;line-height:normal;font-family:sans-serif;font-variant-ligatures:normal;font-variant-position:normal;font-variant-caps:normal;font-variant-numeric:normal;font-variant-alternates:normal;font-feature-settings:normal;text-indent:0;text-align:start;text-decoration:none;text-decoration-line:none;text-decoration-style:solid;text-decoration-color:#000000;letter-spacing:normal;word-spacing:normal;text-transform:none;writing-mode:lr-tb;direction:ltr;text-orientation:mixed;dominant-baseline:auto;baseline-shift:baseline;text-anchor:start;white-space:normal;shape-padding:0;clip-rule:nonzero;display:inline;overflow:visible;visibility:visible;opacity:1;isolation:auto;mix-blend-mode:normal;color-interpolation:sRGB;color-interpolation-filters:linearRGB;solid-color:#000000;solid-opacity:1;vector-effect:none;fill:#e2c419;fill-opacity:1;fill-rule:evenodd;stroke:#9a8511;stroke-width:0.16041908;stroke-linecap:round;stroke-linejoin:miter;stroke-miterlimit:4;stroke-dasharray:none;stroke-dashoffset:0;stroke-opacity:1;color-rendering:auto;image-rendering:auto;shape-rendering:auto;text-rendering:auto;enable-background:accumulate"
       d="m 90.093255,146.97163 a 0.62674015,0.40531076 59.385149 0 0 -0.456594,-0.38026 c 0,0 -10.473609,-2.39052 -17.231221,0.24855 -6.672127,2.60568 -19.327643,10.05281 -19.327643,10.05281 a 0.62674015,0.40531076 59.385149 1 0 0.637365,1.0787 c 0,0 12.688979,-7.45174 19.251891,-10.01477 6.477418,-2.52965 16.851443,-0.22862 16.851443,-0.22862 a 0.62674015,0.40531076 59.385149 0 0 0.274779,-0.75642 z"
       id="path7896"
       inkscape:connector-curvature="0" />
    <path
       style="color:#000000;font-style:normal;font-variant:normal;font-weight:normal;font-stretch:normal;font-size:medium;line-height:normal;font-family:sans-serif;font-variant-ligatures:normal;font-variant-position:normal;font-variant-caps:normal;font-variant-numeric:normal;font-variant-alternates:normal;font-feature-settings:normal;text-indent:0;text-align:start;text-decoration:none;text-decoration-line:none;text-decoration-style:solid;text-decoration-color:#000000;letter-spacing:normal;word-spacing:normal;text-transform:none;writing-mode:lr-tb;direction:ltr;text-orientation:mixed;dominant-baseline:auto;baseline-shift:baseline;text-anchor:start;white-space:normal;shape-padding:0;clip-rule:nonzero;display:inline;overflow:visible;visibility:visible;opacity:1;isolation:auto;mix-blend-mode:normal;color-interpolation:sRGB;color-interpolation-filters:linearRGB;solid-color:#000000;solid-opacity:1;vector-effect:none;fill:#e2c419;fill-opacity:1;fill-rule:evenodd;stroke:#9a8511;stroke-width:0.16041908;stroke-linecap:round;stroke-linejoin:miter;stroke-miterlimit:4;stroke-dasharray:none;stroke-dashoffset:0;stroke-opacity:1;color-rendering:auto;image-rendering:auto;shape-rendering:auto;text-rendering:auto;enable-background:accumulate"
       d="m 89.810102,143.33455 a 0.62674015,0.40531076 59.385149 0 0 -0.548521,-0.38195 c 0,0 -11.817231,0.47083 -19.577427,4.13146 -7.692712,3.6288 -16.873912,9.06385 -16.873912,9.06385 a 0.62674015,0.40531076 59.385149 1 0 0.638167,1.07826 c 0,0 9.175225,-5.42898 16.830512,-9.04013 7.587818,-3.57932 19.35708,-4.07806 19.35708,-4.07806 a 0.62674015,0.40531076 59.385149 0 0 0.174101,-0.77343 z"
       id="path7894"
       inkscape:connector-curvature="0" />
    <path
       style="color:#000000;font-style:normal;font-variant:normal;font-weight:normal;font-stretch:normal;font-size:medium;line-height:normal;font-family:sans-serif;font-variant-ligatures:normal;font-variant-position:normal;font-variant-caps:normal;font-variant-numeric:normal;font-variant-alternates:normal;font-feature-settings:normal;text-indent:0;text-align:start;text-decoration:none;text-decoration-line:none;text-decoration-style:solid;text-decoration-color:#000000;letter-spacing:normal;word-spacing:normal;text-transform:none;writing-mode:lr-tb;direction:ltr;text-orientation:mixed;dominant-baseline:auto;baseline-shift:baseline;text-anchor:start;white-space:normal;shape-padding:0;clip-rule:nonzero;display:inline;overflow:visible;visibility:visible;opacity:1;isolation:auto;mix-blend-mode:normal;color-interpolation:sRGB;color-interpolation-filters:linearRGB;solid-color:#000000;solid-opacity:1;vector-effect:none;fill:#e2c419;fill-opacity:1;fill-rule:evenodd;stroke:#9a8511;stroke-width:0.16041908;stroke-linecap:round;stroke-linejoin:miter;stroke-miterlimit:4;stroke-dasharray:none;stroke-dashoffset:0;stroke-opacity:1;color-rendering:auto;image-rendering:auto;shape-rendering:auto;text-rendering:auto;enable-background:accumulate"
       d="m 88.426616,139.73928 a 0.62674015,0.40531076 59.385149 0 0 -0.62917,-0.36971 c 0,0 -13.514645,4.39945 -20.522601,8.11309 -6.964969,3.69087 -14.624897,8.02931 -14.624897,8.02931 a 0.62708755,0.40553543 59.385149 1 0 0.629738,1.08454 c 0,0 7.656273,-4.33628 14.611544,-8.02201 6.912282,-3.66294 20.43903,-8.07915 20.43903,-8.07915 a 0.62674015,0.40531076 59.385149 0 0 0.09636,-0.75607 z"
       id="path7892"
       inkscape:connector-curvature="0" />
    <path
       style="color:#000000;font-style:normal;font-variant:normal;font-weight:normal;font-stretch:normal;font-size:medium;line-height:normal;font-family:sans-serif;font-variant-ligatures:normal;font-variant-position:normal;font-variant-caps:normal;font-variant-numeric:normal;font-variant-alternates:normal;font-feature-settings:normal;text-indent:0;text-align:start;text-decoration:none;text-decoration-line:none;text-decoration-style:solid;text-decoration-color:#000000;letter-spacing:normal;word-spacing:normal;text-transform:none;writing-mode:lr-tb;direction:ltr;text-orientation:mixed;dominant-baseline:auto;baseline-shift:baseline;text-anchor:start;white-space:normal;shape-padding:0;clip-rule:nonzero;display:inline;overflow:visible;visibility:visible;opacity:1;isolation:auto;mix-blend-mode:normal;color-interpolation:sRGB;color-interpolation-filters:linearRGB;solid-color:#000000;solid-opacity:1;vector-effect:none;fill:#e2c419;fill-opacity:1;fill-rule:evenodd;stroke:#9a8511;stroke-width:0.16041908;stroke-linecap:round;stroke-linejoin:miter;stroke-miterlimit:4;stroke-dasharray:none;stroke-dashoffset:0;stroke-opacity:1;color-rendering:auto;image-rendering:auto;shape-rendering:auto;text-rendering:auto;enable-background:accumulate"
       d="m 79.565185,129.3033 a 0.62674015,0.40531076 59.385149 0 0 -0.805069,-0.10277 c 0,0 -0.408673,1.86473 -1.917661,4.52805 -1.508981,2.66333 -4.110434,6.09149 -8.475774,9.11953 -8.774768,6.08667 -17.391173,9.50395 -17.391173,9.50395 a 0.62674015,0.40531076 59.385149 1 0 0.563363,1.11411 c 0,0 8.667053,-3.4332 17.498667,-9.55925 4.437838,-3.07833 7.095792,-6.57584 8.645526,-9.31109 1.549739,-2.73526 1.999138,-4.74173 1.999138,-4.74173 a 0.62674015,0.40531076 59.385149 0 0 -0.116988,-0.55074 z"
       id="path7882"
       inkscape:connector-curvature="0" />
    <path
       style="color:#000000;font-style:normal;font-variant:normal;font-weight:normal;font-stretch:normal;font-size:medium;line-height:normal;font-family:sans-serif;font-variant-ligatures:normal;font-variant-position:normal;font-variant-caps:normal;font-variant-numeric:normal;font-variant-alternates:normal;font-feature-settings:normal;text-indent:0;text-align:start;text-decoration:none;text-decoration-line:none;text-decoration-style:solid;text-decoration-color:#000000;letter-spacing:normal;word-spacing:normal;text-transform:none;writing-mode:lr-tb;direction:ltr;text-orientation:mixed;dominant-baseline:auto;baseline-shift:baseline;text-anchor:start;white-space:normal;shape-padding:0;clip-rule:nonzero;display:inline;overflow:visible;visibility:visible;opacity:1;isolation:auto;mix-blend-mode:normal;color-interpolation:sRGB;color-interpolation-filters:linearRGB;solid-color:#000000;solid-opacity:1;vector-effect:none;fill:#e2c419;fill-opacity:1;fill-rule:evenodd;stroke:#9a8511;stroke-width:0.16041908;stroke-linecap:round;stroke-linejoin:miter;stroke-miterlimit:4;stroke-dasharray:none;stroke-dashoffset:0;stroke-opacity:1;color-rendering:auto;image-rendering:auto;shape-rendering:auto;text-rendering:auto;enable-background:accumulate"
       d="m 82.437238,130.97986 a 0.62674015,0.40531076 59.385149 0 0 -0.759064,-0.27696 c 0,0 -7.18656,9.29133 -14.52973,13.98489 -7.389234,4.72299 -15.673345,8.56363 -15.673345,8.56363 a 0.62691571,0.40542429 59.385149 1 0 0.59143,1.1038 c 0,0 8.305561,-3.84854 15.735949,-8.59784 7.476445,-4.77874 14.667457,-14.11373 14.667457,-14.11373 a 0.62674015,0.40531076 59.385149 0 0 -0.03269,-0.66379 z"
       id="path7886"
       inkscape:connector-curvature="0" />
    <path
       style="color:#000000;font-style:normal;font-variant:normal;font-weight:normal;font-stretch:normal;font-size:medium;line-height:normal;font-family:sans-serif;font-variant-ligatures:normal;font-variant-position:normal;font-variant-caps:normal;font-variant-numeric:normal;font-variant-alternates:normal;font-feature-settings:normal;text-indent:0;text-align:start;text-decoration:none;text-decoration-line:none;text-decoration-style:solid;text-decoration-color:#000000;letter-spacing:normal;word-spacing:normal;text-transform:none;writing-mode:lr-tb;direction:ltr;text-orientation:mixed;dominant-baseline:auto;baseline-shift:baseline;text-anchor:start;white-space:normal;shape-padding:0;clip-rule:nonzero;display:inline;overflow:visible;visibility:visible;opacity:1;isolation:auto;mix-blend-mode:normal;color-interpolation:sRGB;color-interpolation-filters:linearRGB;solid-color:#000000;solid-opacity:1;vector-effect:none;fill:#e2c419;fill-opacity:1;fill-rule:evenodd;stroke:#9a8511;stroke-width:0.16041908;stroke-linecap:round;stroke-linejoin:miter;stroke-miterlimit:4;stroke-dasharray:none;stroke-dashoffset:0;stroke-opacity:1;color-rendering:auto;image-rendering:auto;shape-rendering:auto;text-rendering:auto;enable-background:accumulate"
       d="m 84.402779,133.89032 a 0.62674015,0.40531076 59.385149 0 0 -0.70085,-0.30542 c 0,0 -11.328474,9.0523 -17.236183,12.50759 -5.943023,3.47594 -14.493962,7.91924 -14.493962,7.91924 a 0.62674015,0.40531076 59.385149 1 0 0.612358,1.09237 c 0,0 8.553226,-4.44374 14.517324,-7.93201 5.999404,-3.50892 17.299294,-12.55044 17.299294,-12.55044 a 0.62674015,0.40531076 59.385149 0 0 0.002,-0.73133 z"
       id="path7888"
       inkscape:connector-curvature="0" />
    <path
       style="color:#000000;font-style:normal;font-variant:normal;font-weight:normal;font-stretch:normal;font-size:medium;line-height:normal;font-family:sans-serif;font-variant-ligatures:normal;font-variant-position:normal;font-variant-caps:normal;font-variant-numeric:normal;font-variant-alternates:normal;font-feature-settings:normal;text-indent:0;text-align:start;text-decoration:none;text-decoration-line:none;text-decoration-style:solid;text-decoration-color:#000000;letter-spacing:normal;word-spacing:normal;text-transform:none;writing-mode:lr-tb;direction:ltr;text-orientation:mixed;dominant-baseline:auto;baseline-shift:baseline;text-anchor:start;white-space:normal;shape-padding:0;clip-rule:nonzero;display:inline;overflow:visible;visibility:visible;opacity:1;isolation:auto;mix-blend-mode:normal;color-interpolation:sRGB;color-interpolation-filters:linearRGB;solid-color:#000000;solid-opacity:1;vector-effect:none;fill:#e2c419;fill-opacity:1;fill-rule:evenodd;stroke:#9a8511;stroke-width:0.16041908;stroke-linecap:round;stroke-linejoin:miter;stroke-miterlimit:4;stroke-dasharray:none;stroke-dashoffset:0;stroke-opacity:1;color-rendering:auto;image-rendering:auto;shape-rendering:auto;text-rendering:auto;enable-background:accumulate"
       d="m 86.559136,136.60776 a 0.62674015,0.40531076 59.385149 0 0 -0.668083,-0.32667 c 0,0 -15.599587,8.97833 -19.013759,10.61823 -3.504663,1.68336 -14.40716,7.87181 -14.40716,7.87181 a 0.62674015,0.40531076 59.385149 1 0 0.62981,1.08283 c 0,0 10.941378,-6.20503 14.375439,-7.85448 3.524541,-1.69292 19.048809,-10.63738 19.048809,-10.63738 a 0.62674015,0.40531076 59.385149 0 0 0.03491,-0.75432 z"
       id="path7890"
       inkscape:connector-curvature="0" />
    <path
       style="fill:none;fill-rule:evenodd;stroke:#4a3a0f;stroke-width:0.64200002;stroke-linecap:butt;stroke-linejoin:miter;stroke-miterlimit:4;stroke-dasharray:none;stroke-opacity:1"
       d="m 64.313328,146.54517 c 0,0 2.567094,4.39099 2.286945,4.50354 -0.280156,0.11255 -3.180459,-5.23078 -3.521179,-5.08513 -0.340728,0.14565 2.81197,5.51314 2.569677,5.64553 -0.242286,0.13238 -3.268799,-5.38509 -3.551471,-5.23064 -0.282671,0.15444 2.837229,5.74243 2.592412,5.91671 -0.244815,0.17428 -3.458116,-5.48422 -3.619624,-5.39598 -0.161529,0.0883 2.506551,5.0723 2.506551,5.0723"
       id="path7914"
       inkscape:connector-curvature="0"
       sodipodi:nodetypes="cccsscsc" />
  </g>
</svg>
